<svg width="24" height="24" viewBox="0 0 24 24" fill="none" xmlns="http://www.w3.org/2000/svg">
<path d="M24 12C24 5.37824 18.6218 0 12 0C5.37824 0 0 5.37824 0 12C0 18.6218 5.37824 24 12 24C18.6218 24 24 18.6218 24 12ZM9.26425 16.601C9.01554 16.8497 8.67358 16.9741 8.33161 16.9741C7.98964 16.9741 7.64767 16.8497 7.39896 16.601C6.87047 16.0725 6.87047 15.2642 7.39896 14.7358L10.1347 12L7.39896 9.26425C6.87047 8.73575 6.87047 7.92746 7.39896 7.39896C7.92746 6.87047 8.73575 6.87047 9.26425 7.39896L12 10.1347L14.7358 7.39896C15.2642 6.87047 16.0725 6.87047 16.601 7.39896C17.1295 7.92746 17.1295 8.73575 16.601 9.26425L13.8653 12L16.601 14.7358C17.1295 15.2642 17.1295 16.0725 16.601 16.601C16.3523 16.8497 16.0104 16.9741 15.6684 16.9741C15.3264 16.9741 14.9845 16.8497 14.7358 16.601L12 13.8653L9.26425 16.601Z" fill="black" fill-opacity="0.63"/>
</svg>
