<svg width="21" height="22" viewBox="0 0 21 22" fill="none" xmlns="http://www.w3.org/2000/svg">
<path d="M10.4348 0.289307C8.37097 0.289307 6.35351 0.904465 4.63752 2.05699C2.92154 3.20952 1.58409 4.84765 0.794304 6.76423C0.00452122 8.68081 -0.202122 10.7898 0.200506 12.8244C0.603133 14.859 1.59695 16.728 3.05628 18.1948C4.5156 19.6617 6.3749 20.6607 8.39905 21.0654C10.4232 21.4701 12.5213 21.2624 14.428 20.4685C16.3347 19.6747 17.9644 18.3303 19.111 16.6054C20.2575 14.8805 20.8695 12.8526 20.8695 10.7781C20.8695 9.40071 20.5996 8.03679 20.0752 6.76423C19.5508 5.49167 18.7822 4.33539 17.8133 3.36141C16.8443 2.38743 15.694 1.61483 14.428 1.08772C13.162 0.560608 11.8051 0.289307 10.4348 0.289307ZM8.34782 14.9737L5.21739 16.0225L6.26086 12.8759L13.5652 5.53372L15.6522 7.63148L8.34782 14.9737Z" fill="#5A88D5" fill-opacity="0.8"/>
</svg>
