<svg width="48px" height="auto" fill="#5A88D5" xmlns="http://www.w3.org/2000/svg" data-name="Layer 2" viewBox="0 0 32 40" x="0px" y="0px"><title>Extra-Icon</title><path d="M29.18,15.91,16.09,2.82a2.78,2.78,0,0,0-2-.82H4.79A2.79,2.79,0,0,0,2,4.79v9.33a2.77,2.77,0,0,0,.82,2L15.91,29.18a2.79,2.79,0,0,0,3.95,0l9.33-9.33h0A2.8,2.8,0,0,0,29.18,15.91Zm-1.31,2.63-9.33,9.33a1,1,0,0,1-1.31,0L4.14,14.78a.92.92,0,0,1-.27-.66V4.79a.93.93,0,0,1,.93-.93h9.33a.93.93,0,0,1,.66.27L27.87,17.22A.93.93,0,0,1,27.87,18.54Z"/><path d="M7.51,7.5h0a.93.93,0,0,0,0,1.31.94.94,0,0,0,1.32,0A.93.93,0,0,0,7.51,7.5Z"/><path d="M21.54,14.23a.93.93,0,0,0-1.31,0l-.84.84-1.67-1.67.84-.84a.93.93,0,0,0-1.31-1.31l-.84.84-.84-.84a.93.93,0,1,0-1.31,1.31l.84.84-1.67,1.67-.84-.84a.93.93,0,0,0-1.31,1.31l.84.84-.84.84a.93.93,0,0,0,0,1.31.94.94,0,0,0,1.31,0l.84-.84,1.67,1.67-.84.84a.93.93,0,0,0,0,1.31.94.94,0,0,0,1.31,0l.84-.84.84.84a.94.94,0,0,0,1.31,0,.93.93,0,0,0,0-1.31l-.84-.84,1.67-1.67.84.84a.94.94,0,0,0,1.31,0,.93.93,0,0,0,0-1.31l-.84-.84.84-.84A.93.93,0,0,0,21.54,14.23Zm-5.14,3.83-1.67-1.67,1.67-1.67,1.67,1.67Z"/><text x="0" y="47" fill="#000000" font-size="5px" font-weight="bold" font-family="'Helvetica Neue', Helvetica, Arial-Unicode, Arial, Sans-serif">Created by Wahyu Adam Pratama</text><text x="0" y="52" fill="#000000" font-size="5px" font-weight="bold" font-family="'Helvetica Neue', Helvetica, Arial-Unicode, Arial, Sans-serif">from the Noun Project</text></svg>