<svg xmlns="http://www.w3.org/2000/svg" viewBox="0 0 64 80" x="0px" y="0px" width="48px" height="auto" fill="#5A88D5"><title>email, discount, commerce, sales, marketing</title><g><path d="M28,46a1,1,0,1,1,1-1A1.0009,1.0009,0,0,1,28,46Zm15,3A11,11,0,1,1,32,38,11.0125,11.0125,0,0,1,43,49ZM28,48a3,3,0,1,0-3-3A3.0033,3.0033,0,0,0,28,48Zm9.707-3.293a1,1,0,0,0-1.414-1.414l-10,10a1,1,0,1,0,1.414,1.414ZM39,53a3,3,0,1,0-3,3A3.0033,3.0033,0,0,0,39,53Zm-3-1a1,1,0,1,0,1,1A1.0009,1.0009,0,0,0,36,52ZM64,9V43a5.0018,5.0018,0,0,1-5,5H44.96a12.993,12.993,0,0,0-25.91,0H5a5.0018,5.0018,0,0,1-5-5V9A5.0018,5.0018,0,0,1,5,4H59A5.0018,5.0018,0,0,1,64,9ZM59.5654,42.2813l-19.1532-18.53,18.03-13.961A1,1,0,1,0,57.2178,8.21L32,27.7358,6.7822,8.21a1,1,0,1,0-1.2246,1.581l18.03,13.961L4.4346,42.2813a1,1,0,0,0,1.3906,1.4375l19.36-18.73,6.2022,4.8024a1.0014,1.0014,0,0,0,1.2246,0l6.2022-4.8024,19.36,18.73a1,1,0,1,0,1.3906-1.4375Z"/></g></svg>