<svg xmlns="http://www.w3.org/2000/svg" xmlns:xlink="http://www.w3.org/1999/xlink" xml:space="preserve" version="1.1" style="shape-rendering:geometricPrecision;text-rendering:geometricPrecision;image-rendering:optimizeQuality;" viewBox="0 0 10000 12500" x="0px" y="0px" fill-rule="evenodd" clip-rule="evenodd"><defs><style type="text/css">
   
    .fil0 {fill:#5433ff;fill-rule:nonzero}
   
  </style></defs><g><path class="fil0" d="M5000 979c2220,0 4021,1801 4021,4021 0,2220 -1801,4021 -4021,4021 -2220,0 -4021,-1801 -4021,-4021 0,-2220 1801,-4021 4021,-4021zm0 400c-2000,0 -3621,1621 -3621,3621 0,2000 1621,3621 3621,3621 2000,0 3621,-1621 3621,-3621 0,-2000 -1621,-3621 -3621,-3621z"/><path class="fil0" d="M4963 4055c46,0 86,25 109,62l538 757c18,21 29,50 29,81l0 2317c0,70 -57,127 -127,127l-2197 0c-70,0 -127,-57 -127,-127l0 -3090c0,-70 57,-127 127,-127l1648 0zm-101 254l-1420 0 0 2836 1943 0 0 -2108c-165,-50 -366,54 -440,43 -224,-32 -9,-353 -83,-771zm365 463l-101 -142c-3,49 -8,101 -14,158 41,-7 79,-13 115,-16z"/><path class="fil0" d="M6136 2601c46,0 86,25 109,62l538 757c18,22 29,50 29,81l0 2317c0,70 -57,127 -127,127l-842 0 0 -254 715 0 0 -2108c-165,-50 -366,54 -440,43 -224,-32 -9,-353 -83,-771l-1420 0 0 1030 -254 0 0 -1157c0,-70 57,-127 127,-127l1648 0zm264 717l-101 -142c-3,49 -8,101 -14,159 41,-8 79,-14 115,-17z"/></g><text x="0" y="10015" fill="#5433ff" font-size="5px" font-weight="bold" font-family="'Helvetica Neue', Helvetica, Arial-Unicode, Arial, Sans-serif">Created by lauriel</text><text x="0" y="10020" fill="#5433ff" font-size="5px" font-weight="bold" font-family="'Helvetica Neue', Helvetica, Arial-Unicode, Arial, Sans-serif">from the Noun Project</text></svg>