<svg width="48px" fill="#5433ff" height="auto" xmlns="http://www.w3.org/2000/svg" xmlns:xlink="http://www.w3.org/1999/xlink" version="1.1" x="0px" y="0px" viewBox="0 0 90 112.5" enable-background="new 0 0 90 90" xml:space="preserve"><g><g><path fill="none" stroke="#5433ff" stroke-width="3.2264" stroke-miterlimit="10" d="M693.613,78.085h-23.067    c-1.603,0-2.901-1.191-2.901-2.662V24.501c0-1.472,1.299-2.664,2.901-2.664h23.067c1.603,0,2.901,1.192,2.901,2.664v50.922    C696.515,76.894,695.216,78.085,693.613,78.085z"/></g><g><path fill="#5433ff" stroke="#5433ff" stroke-width="3.2383" stroke-miterlimit="10" d="M687.614,78.184h-11.069    c-1.674,0-3.031-1.236-3.031-2.761V19.334c0-1.524,1.357-2.76,3.031-2.76h11.069c1.674,0,3.031,1.235,3.031,2.76v56.089    C690.646,76.947,689.288,78.184,687.614,78.184z M679.575,72.661l5.007,0.001V22.095h-5.007V72.661z"/></g><g><path d="M45.006,6.199L44.877,6.2c-6.644,0.032-12.875,2.65-17.549,7.371c-4.673,4.721-7.228,10.979-7.194,17.621    c0.031,6.168,5.289,14.793,8.114,19.426c0.531,0.871,1.125,1.846,1.335,2.258c0.187,9.846,7.766,9.846,13.313,9.846l2.955-0.014    c3.773-0.016,7.339-0.03,10.034-1.258c3.157-1.438,4.713-4.295,4.753-8.733c0.205-0.414,0.788-1.391,1.309-2.265    c2.778-4.663,7.95-13.341,7.919-19.513C69.798,17.298,58.646,6.199,45.006,6.199z M59.197,48.812    c-1.484,2.491-1.765,2.981-1.76,3.646c0.021,4.215-1.527,5.462-2.879,6.078c-2.069,0.942-5.151,0.955-8.721,0.97l-2.941,0.014    c-6.853,0-10.084-0.685-10.115-6.933c-0.003-0.668-0.287-1.156-1.8-3.637c-2.473-4.056-7.619-12.497-7.646-17.774    c-0.028-5.788,2.197-11.24,6.269-15.353c4.071-4.113,9.501-6.394,15.289-6.423h0.113c11.883,0,21.6,9.669,21.659,21.554    C66.691,36.236,61.63,44.73,59.197,48.812z"/><path d="M35.889,67.95c0.002,0,0.004,0,0.007,0l18.585-0.095c0.688-0.003,1.242-0.563,1.238-1.251    c-0.003-0.687-0.561-1.239-1.245-1.239c-0.002,0-0.004,0-0.006,0L35.882,65.46c-0.688,0.003-1.242,0.563-1.238,1.252    C34.646,67.397,35.204,67.95,35.889,67.95z"/><path d="M54.496,70.047c-0.002,0-0.004,0-0.006,0l-18.584,0.094c-0.688,0.003-1.243,0.563-1.239,1.251    c0.003,0.687,0.561,1.239,1.245,1.239c0.002,0,0.004,0,0.006,0l18.584-0.094c0.688-0.003,1.243-0.563,1.239-1.251    C55.738,70.6,55.181,70.047,54.496,70.047z"/><path d="M53.872,74.73c-0.002,0-0.004,0-0.006,0l-17.288,0.088c-0.402,0.002-0.779,0.198-1.011,0.526    c-0.232,0.329-0.292,0.749-0.159,1.129c1.454,4.17,5.395,6.971,9.805,6.971c0.002,0,0.052,0,0.054,0    c4.436-0.021,8.367-2.863,9.785-7.071c0.129-0.381,0.065-0.801-0.17-1.127C54.647,74.922,54.271,74.73,53.872,74.73z     M45.213,82.197L45.213,82.197v0.002V82.197z"/><path d="M60.294,27.616c-0.04-0.078-0.067-0.161-0.126-0.231c-0.441-0.525-1.227-0.594-1.755-0.151l-4.145,3.485l-3.898-3.42    c-0.475-0.418-1.183-0.414-1.651,0.008l-3.844,3.44l-3.907-3.404c-0.474-0.413-1.178-0.409-1.646,0.008l-3.872,3.443l-3.869-3.4    c-0.517-0.455-1.305-0.402-1.758,0.113c-0.153,0.174-0.228,0.381-0.268,0.594c-0.059,0.17-0.075,0.356-0.011,0.539l7.594,21.727    c0.119,0.343,0.44,0.557,0.783,0.557c0.091,0,0.184-0.015,0.273-0.047c0.434-0.15,0.661-0.624,0.51-1.057l-6.481-18.545    l2.409,2.117c0.235,0.206,0.529,0.31,0.822,0.31c0.296,0,0.592-0.104,0.827-0.314l3.327-2.958l2.314,16.434    c0.059,0.414,0.414,0.714,0.821,0.714c0.038,0,0.077-0.003,0.117-0.008c0.453-0.064,0.77-0.484,0.706-0.938l-2.202-15.637    l2.701,2.354c0.475,0.414,1.182,0.409,1.648-0.011l2.634-2.357l-2.042,15.639c-0.06,0.454,0.261,0.871,0.716,0.931    c0.036,0.005,0.072,0.007,0.108,0.007c0.411,0,0.768-0.305,0.822-0.723l2.148-16.454l3.327,2.918    c0.463,0.407,1.152,0.414,1.623,0.018l2.901-2.439l-6.386,18.881c-0.147,0.434,0.086,0.905,0.521,1.052    c0.088,0.03,0.178,0.044,0.266,0.044c0.347,0,0.669-0.218,0.786-0.564l7.374-21.803C60.622,28.167,60.523,27.832,60.294,27.616z"/></g></g></svg>
