<svg xmlns="http://www.w3.org/2000/svg" xmlns:xlink="http://www.w3.org/1999/xlink" version="1.1" x="0px" y="0px" viewBox="0 0 100 125" enable-background="new 0 0 100 100" xml:space="preserve"><rect x="-230" y="15.6" fill="none" stroke="#000000" stroke-width="3" stroke-miterlimit="10" width="80" height="68.5"/><line fill="none" stroke="#000000" stroke-width="3" stroke-miterlimit="10" x1="-230" y1="33.5" x2="-150" y2="33.5"/><line fill="none" stroke="#000000" stroke-width="3" stroke-miterlimit="10" x1="-230" y1="71.5" x2="-150" y2="71.5"/><rect x="-200" y="56.2" width="20" height="5.8"/><line fill="none" stroke="#000000" stroke-width="3" stroke-miterlimit="10" x1="-205" y1="24.5" x2="-195" y2="24.5"/><line fill="none" stroke="#000000" stroke-width="3" stroke-miterlimit="10" x1="-192" y1="24.5" x2="-182" y2="24.5"/><line fill="none" stroke="#000000" stroke-width="3" stroke-miterlimit="10" x1="-179" y1="24.5" x2="-169" y2="24.5"/><line fill="none" stroke="#000000" stroke-width="3" stroke-miterlimit="10" x1="-166" y1="24.5" x2="-156" y2="24.5"/><polygon points="-218.1,19.7 -216.7,22.7 -213.3,23.2 -215.7,25.5 -215.2,28.8 -218.1,27.2 -221.1,28.8 -220.5,25.5 -222.9,23.2   -219.6,22.7 "/><line fill="none" stroke="#000000" stroke-width="3" stroke-miterlimit="10" x1="-204" y1="51.5" x2="-176" y2="51.5"/><line fill="none" stroke="#000000" stroke-width="3" stroke-miterlimit="10" x1="-208" y1="45.5" x2="-172" y2="45.5"/><rect x="-110" y="15.6" fill="none" stroke="#000000" stroke-width="3" stroke-miterlimit="10" width="80" height="68.5"/><line fill="none" stroke="#000000" stroke-width="3" stroke-miterlimit="10" x1="-110" y1="33.5" x2="-30" y2="33.5"/><polygon points="-98.1,19.7 -96.7,22.7 -93.3,23.2 -95.7,25.5 -95.2,28.8 -98.1,27.2 -101.1,28.8 -100.5,25.5 -102.9,23.2   -99.6,22.7 "/><line fill="none" stroke="#000000" stroke-width="3" stroke-miterlimit="10" x1="-85" y1="24.5" x2="-75" y2="24.5"/><line fill="none" stroke="#000000" stroke-width="3" stroke-miterlimit="10" x1="-72" y1="24.5" x2="-62" y2="24.5"/><line fill="none" stroke="#000000" stroke-width="3" stroke-miterlimit="10" x1="-59" y1="24.5" x2="-49" y2="24.5"/><line fill="none" stroke="#000000" stroke-width="3" stroke-miterlimit="10" x1="-46" y1="24.5" x2="-36" y2="24.5"/><rect x="10" y="15.6" fill="none" stroke="#000000" stroke-width="3" stroke-miterlimit="10" width="80" height="68.5"/><line fill="none" stroke="#000000" stroke-width="3" stroke-miterlimit="10" x1="10" y1="33.5" x2="90" y2="33.5"/><polygon points="21.9,19.7 23.3,22.7 26.7,23.2 24.3,25.5 24.8,28.8 21.9,27.2 18.9,28.8 19.5,25.5 17.1,23.2 20.4,22.7 "/><rect x="55.4" y="43.3" fill="none" stroke="#000000" stroke-width="3" stroke-miterlimit="10" width="25.6" height="30.7"/><line fill="none" stroke="#000000" stroke-width="3" stroke-miterlimit="10" x1="35" y1="24.5" x2="45" y2="24.5"/><line fill="none" stroke="#000000" stroke-width="3" stroke-miterlimit="10" x1="48" y1="24.5" x2="58" y2="24.5"/><line fill="none" stroke="#000000" stroke-width="3" stroke-miterlimit="10" x1="61" y1="24.5" x2="71" y2="24.5"/><line fill="none" stroke="#000000" stroke-width="3" stroke-miterlimit="10" x1="74" y1="24.5" x2="84" y2="24.5"/><line fill="none" stroke="#000000" stroke-width="3" stroke-miterlimit="10" x1="48" y1="43.5" x2="18" y2="43.5"/><line fill="none" stroke="#000000" stroke-width="3" stroke-miterlimit="10" x1="48" y1="49.5" x2="18" y2="49.5"/><line fill="none" stroke="#000000" stroke-width="3" stroke-miterlimit="10" x1="48" y1="55.5" x2="18" y2="55.5"/><line fill="none" stroke="#000000" stroke-width="3" stroke-miterlimit="10" x1="48" y1="61.5" x2="18" y2="61.5"/><line fill="none" stroke="#000000" stroke-width="3" stroke-miterlimit="10" x1="48" y1="67.5" x2="18" y2="67.5"/><line fill="none" stroke="#000000" stroke-width="3" stroke-miterlimit="10" x1="48" y1="73.5" x2="18" y2="73.5"/><rect x="130" y="15.6" fill="none" stroke="#000000" stroke-width="3" stroke-miterlimit="10" width="80" height="68.5"/><line fill="none" stroke="#000000" stroke-width="3" stroke-miterlimit="10" x1="130" y1="33.5" x2="210" y2="33.5"/><polygon points="141.9,19.7 143.3,22.7 146.7,23.2 144.3,25.5 144.8,28.8 141.9,27.2 138.9,28.8 139.5,25.5 137.1,23.2 140.4,22.7   "/><rect x="175.4" y="43.3" fill="none" stroke="#000000" stroke-width="3" stroke-miterlimit="10" width="25.6" height="30.7"/><line fill="none" stroke="#000000" stroke-width="3" stroke-miterlimit="10" x1="155" y1="24.5" x2="165" y2="24.5"/><line fill="none" stroke="#000000" stroke-width="3" stroke-miterlimit="10" x1="168" y1="24.5" x2="178" y2="24.5"/><line fill="none" stroke="#000000" stroke-width="3" stroke-miterlimit="10" x1="181" y1="24.5" x2="191" y2="24.5"/><line fill="none" stroke="#000000" stroke-width="3" stroke-miterlimit="10" x1="194" y1="24.5" x2="204" y2="24.5"/><line fill="none" stroke="#000000" stroke-width="3" stroke-miterlimit="10" x1="168" y1="43.5" x2="138" y2="43.5"/><line fill="none" stroke="#000000" stroke-width="3" stroke-miterlimit="10" x1="168" y1="67.5" x2="138" y2="67.5"/><line fill="none" stroke="#000000" stroke-width="3" stroke-miterlimit="10" x1="168" y1="73.5" x2="138" y2="73.5"/><rect x="138" y="48" width="30" height="15"/><rect x="-230" y="135.6" fill="none" stroke="#000000" stroke-width="3" stroke-miterlimit="10" width="80" height="68.5"/><line fill="none" stroke="#000000" stroke-width="3" stroke-miterlimit="10" x1="-230" y1="153.5" x2="-150" y2="153.5"/><polygon points="-218.1,139.7 -216.7,142.7 -213.3,143.2 -215.7,145.5 -215.2,148.8 -218.1,147.2 -221.1,148.8 -220.5,145.5   -222.9,143.2 -219.6,142.7 "/><line fill="none" stroke="#000000" stroke-width="3" stroke-miterlimit="10" x1="-205" y1="144.5" x2="-195" y2="144.5"/><line fill="none" stroke="#000000" stroke-width="3" stroke-miterlimit="10" x1="-192" y1="144.5" x2="-182" y2="144.5"/><line fill="none" stroke="#000000" stroke-width="3" stroke-miterlimit="10" x1="-179" y1="144.5" x2="-169" y2="144.5"/><line fill="none" stroke="#000000" stroke-width="3" stroke-miterlimit="10" x1="-166" y1="144.5" x2="-156" y2="144.5"/><g><path d="M-195.3,193.4l-4.2-4.2l22.6-22.6l4.2,4.2L-195.3,193.4z M-195.3,184.9l-7.8-7.8l-4.2,4.2l7.8,7.8L-195.3,184.9z"/><line fill="none" stroke="#000000" stroke-width="3" stroke-miterlimit="10" x1="-110" y1="153.5" x2="-30" y2="153.5"/><polygon points="-98.1,139.7 -96.7,142.7 -93.3,143.2 -95.7,145.5 -95.2,148.8 -98.1,147.2 -101.1,148.8 -100.5,145.5    -102.9,143.2 -99.6,142.7  "/><line fill="none" stroke="#000000" stroke-width="3" stroke-miterlimit="10" x1="-85" y1="144.5" x2="-75" y2="144.5"/><line fill="none" stroke="#000000" stroke-width="3" stroke-miterlimit="10" x1="-72" y1="144.5" x2="-62" y2="144.5"/><line fill="none" stroke="#000000" stroke-width="3" stroke-miterlimit="10" x1="-59" y1="144.5" x2="-49" y2="144.5"/><line fill="none" stroke="#000000" stroke-width="3" stroke-miterlimit="10" x1="-46" y1="144.5" x2="-36" y2="144.5"/><line fill="none" stroke="#000000" stroke-width="3" stroke-miterlimit="10" x1="-104" y1="161.5" x2="-36" y2="161.5"/><rect x="-102.5" y="168.5" fill="none" stroke="#000000" stroke-width="3" stroke-miterlimit="10" width="11" height="10"/><rect x="-84.5" y="168.5" fill="none" stroke="#000000" stroke-width="3" stroke-miterlimit="10" width="11" height="10"/><rect x="-66.5" y="168.5" fill="none" stroke="#000000" stroke-width="3" stroke-miterlimit="10" width="11" height="10"/><rect x="-48.5" y="168.5" fill="none" stroke="#000000" stroke-width="3" stroke-miterlimit="10" width="11" height="10"/><rect x="-102.5" y="185.5" fill="none" stroke="#000000" stroke-width="3" stroke-miterlimit="10" width="11" height="10"/><rect x="-84.5" y="185.5" fill="none" stroke="#000000" stroke-width="3" stroke-miterlimit="10" width="11" height="10"/><rect x="-66.5" y="185.5" fill="none" stroke="#000000" stroke-width="3" stroke-miterlimit="10" width="11" height="10"/><rect x="-48.5" y="185.5" fill="none" stroke="#000000" stroke-width="3" stroke-miterlimit="10" width="11" height="10"/><line fill="none" stroke="#000000" stroke-width="3" stroke-miterlimit="10" x1="10" y1="153.5" x2="90" y2="153.5"/><polygon points="21.9,139.7 23.3,142.7 26.7,143.2 24.3,145.5 24.8,148.8 21.9,147.2 18.9,148.8 19.5,145.5 17.1,143.2 20.4,142.7     "/><line fill="none" stroke="#000000" stroke-width="3" stroke-miterlimit="10" x1="35" y1="146.5" x2="45" y2="146.5"/><line fill="none" stroke="#000000" stroke-width="3" stroke-miterlimit="10" x1="48" y1="146.5" x2="58" y2="146.5"/><line fill="none" stroke="#000000" stroke-width="3" stroke-miterlimit="10" x1="61" y1="146.5" x2="71" y2="146.5"/><line fill="none" stroke="#000000" stroke-width="3" stroke-miterlimit="10" x1="74" y1="146.5" x2="84" y2="146.5"/><path fill="none" stroke="#000000" stroke-width="3" stroke-miterlimit="10" d="M84,161.5"/><path fill="none" stroke="#000000" stroke-width="3" stroke-miterlimit="10" d="M16,162.5"/><rect x="10" y="135.5" fill="none" stroke="#000000" stroke-width="3" stroke-miterlimit="10" width="80" height="68.5"/><rect x="17.5" y="161" fill="none" stroke="#000000" stroke-width="3" stroke-miterlimit="10" width="40.5" height="35.5"/><rect x="17.5" y="188" width="40.5" height="8.5"/><rect x="65.5" y="161" fill="none" stroke="#000000" stroke-width="3" stroke-miterlimit="10" width="17.5" height="8"/><rect x="65.5" y="175" fill="none" stroke="#000000" stroke-width="3" stroke-miterlimit="10" width="17.5" height="8"/><rect x="65.5" y="189" fill="none" stroke="#000000" stroke-width="3" stroke-miterlimit="10" width="17.5" height="8"/></g><rect x="-110" y="135.5" fill="none" stroke="#000000" stroke-width="3" stroke-miterlimit="10" width="80" height="68.5"/><rect x="130" y="135.6" fill="none" stroke="#000000" stroke-width="3" stroke-miterlimit="10" width="80" height="68.5"/><line fill="none" stroke="#000000" stroke-width="3" stroke-miterlimit="10" x1="130" y1="153.5" x2="210" y2="153.5"/><polygon points="141.9,139.7 143.3,142.7 146.7,143.2 144.3,145.5 144.8,148.8 141.9,147.2 138.9,148.8 139.5,145.5 137.1,143.2   140.4,142.7 "/><rect x="175.4" y="163.3" fill="none" stroke="#000000" stroke-width="3" stroke-miterlimit="10" width="25.6" height="30.7"/><line fill="none" stroke="#000000" stroke-width="3" stroke-miterlimit="10" x1="155" y1="146.5" x2="165" y2="146.5"/><line fill="none" stroke="#000000" stroke-width="3" stroke-miterlimit="10" x1="168" y1="146.5" x2="178" y2="146.5"/><line fill="none" stroke="#000000" stroke-width="3" stroke-miterlimit="10" x1="181" y1="146.5" x2="191" y2="146.5"/><line fill="none" stroke="#000000" stroke-width="3" stroke-miterlimit="10" x1="194" y1="146.5" x2="204" y2="146.5"/><line fill="none" stroke="#000000" stroke-width="3" stroke-miterlimit="10" x1="168" y1="163.5" x2="138" y2="163.5"/><line fill="none" stroke="#000000" stroke-width="3" stroke-miterlimit="10" x1="168" y1="187.5" x2="138" y2="187.5"/><line fill="none" stroke="#000000" stroke-width="3" stroke-miterlimit="10" x1="168" y1="193.5" x2="138" y2="193.5"/><rect x="139.5" y="169.5" fill="none" stroke="#000000" stroke-width="3" stroke-miterlimit="10" width="27" height="12"/><rect x="-230" y="255.6" fill="none" stroke="#000000" stroke-width="3" stroke-miterlimit="10" width="80" height="68.5"/><line fill="none" stroke="#000000" stroke-width="3" stroke-miterlimit="10" x1="-230" y1="273.5" x2="-150" y2="273.5"/><line fill="none" stroke="#000000" stroke-width="3" stroke-miterlimit="10" x1="-230" y1="305.5" x2="-150" y2="305.5"/><line fill="none" stroke="#000000" stroke-width="3" stroke-miterlimit="10" x1="-205" y1="266.5" x2="-195" y2="266.5"/><line fill="none" stroke="#000000" stroke-width="3" stroke-miterlimit="10" x1="-192" y1="266.5" x2="-182" y2="266.5"/><line fill="none" stroke="#000000" stroke-width="3" stroke-miterlimit="10" x1="-179" y1="266.5" x2="-169" y2="266.5"/><line fill="none" stroke="#000000" stroke-width="3" stroke-miterlimit="10" x1="-166" y1="266.5" x2="-156" y2="266.5"/><polygon points="-218.1,259.7 -216.7,262.7 -213.3,263.2 -215.7,265.5 -215.2,268.8 -218.1,267.2 -221.1,268.8 -220.5,265.5   -222.9,263.2 -219.6,262.7 "/><rect x="-223" y="280" fill="none" stroke="#000000" stroke-width="3" stroke-miterlimit="10" width="32" height="19"/><line fill="none" stroke="#000000" stroke-width="3" stroke-miterlimit="10" x1="-156" y1="280.5" x2="-185" y2="280.5"/><line fill="none" stroke="#000000" stroke-width="3" stroke-miterlimit="10" x1="-156" y1="286.5" x2="-185" y2="286.5"/><line fill="none" stroke="#000000" stroke-width="3" stroke-miterlimit="10" x1="-156" y1="292.5" x2="-185" y2="292.5"/><line fill="none" stroke="#000000" stroke-width="3" stroke-miterlimit="10" x1="-156" y1="298.5" x2="-185" y2="298.5"/><rect x="-221" y="311.5" fill="none" stroke="#000000" stroke-width="3" stroke-miterlimit="10" width="12.5" height="6.5"/><rect x="-185" y="311.5" fill="none" stroke="#000000" stroke-width="3" stroke-miterlimit="10" width="12.5" height="6.5"/><line fill="none" stroke="#000000" stroke-width="3" stroke-miterlimit="10" x1="-204" y1="311.5" x2="-194" y2="311.5"/><line fill="none" stroke="#000000" stroke-width="3" stroke-miterlimit="10" x1="-204" y1="317.5" x2="-194" y2="317.5"/><line fill="none" stroke="#000000" stroke-width="3" stroke-miterlimit="10" x1="-168" y1="311.5" x2="-158" y2="311.5"/><line fill="none" stroke="#000000" stroke-width="3" stroke-miterlimit="10" x1="-168" y1="317.5" x2="-158" y2="317.5"/><rect x="-110" y="255.6" fill="none" stroke="#000000" stroke-width="3" stroke-miterlimit="10" width="80" height="68.5"/><line fill="none" stroke="#000000" stroke-width="3" stroke-miterlimit="10" x1="-110" y1="273.5" x2="-30" y2="273.5"/><line fill="none" stroke="#000000" stroke-width="3" stroke-miterlimit="10" x1="-85" y1="266.5" x2="-75" y2="266.5"/><line fill="none" stroke="#000000" stroke-width="3" stroke-miterlimit="10" x1="-72" y1="266.5" x2="-62" y2="266.5"/><line fill="none" stroke="#000000" stroke-width="3" stroke-miterlimit="10" x1="-59" y1="266.5" x2="-49" y2="266.5"/><line fill="none" stroke="#000000" stroke-width="3" stroke-miterlimit="10" x1="-46" y1="266.5" x2="-36" y2="266.5"/><polygon points="-98.1,259.7 -96.7,262.7 -93.3,263.2 -95.7,265.5 -95.2,268.8 -98.1,267.2 -101.1,268.8 -100.5,265.5 -102.9,263.2   -99.6,262.7 "/><rect x="-101" y="281.5" fill="none" stroke="#000000" stroke-width="3" stroke-miterlimit="10" width="12.5" height="6.5"/><line fill="none" stroke="#000000" stroke-width="3" stroke-miterlimit="10" x1="-84" y1="281.5" x2="-54" y2="281.5"/><line fill="none" stroke="#000000" stroke-width="3" stroke-miterlimit="10" x1="-84" y1="287.5" x2="-36" y2="287.5"/><rect x="-101" y="295.5" fill="none" stroke="#000000" stroke-width="3" stroke-miterlimit="10" width="12.5" height="6.5"/><line fill="none" stroke="#000000" stroke-width="3" stroke-miterlimit="10" x1="-84" y1="295.5" x2="-54" y2="295.5"/><line fill="none" stroke="#000000" stroke-width="3" stroke-miterlimit="10" x1="-84" y1="301.5" x2="-36" y2="301.5"/><rect x="-101" y="309.5" fill="none" stroke="#000000" stroke-width="3" stroke-miterlimit="10" width="12.5" height="6.5"/><line fill="none" stroke="#000000" stroke-width="3" stroke-miterlimit="10" x1="-84" y1="309.5" x2="-54" y2="309.5"/><line fill="none" stroke="#000000" stroke-width="3" stroke-miterlimit="10" x1="-84" y1="315.5" x2="-36" y2="315.5"/><rect x="10" y="255.6" fill="none" stroke="#000000" stroke-width="3" stroke-miterlimit="10" width="80" height="68.5"/><line fill="none" stroke="#000000" stroke-width="3" stroke-miterlimit="10" x1="10" y1="273.5" x2="90" y2="273.5"/><rect x="37.5" y="309.1" width="25.5" height="6.9"/><polygon points="21.9,259.7 23.3,262.7 26.7,263.2 24.3,265.5 24.8,268.8 21.9,267.2 18.9,268.8 19.5,265.5 17.1,263.2 20.4,262.7   "/><line fill="none" stroke="#000000" stroke-width="3" stroke-miterlimit="10" x1="35" y1="264.5" x2="45" y2="264.5"/><line fill="none" stroke="#000000" stroke-width="3" stroke-miterlimit="10" x1="48" y1="264.5" x2="58" y2="264.5"/><line fill="none" stroke="#000000" stroke-width="3" stroke-miterlimit="10" x1="61" y1="264.5" x2="71" y2="264.5"/><line fill="none" stroke="#000000" stroke-width="3" stroke-miterlimit="10" x1="74" y1="264.5" x2="84" y2="264.5"/><rect x="29" y="284" fill="none" stroke="#000000" stroke-width="3" stroke-miterlimit="10" width="42" height="7.2"/><rect x="29" y="297.4" fill="none" stroke="#000000" stroke-width="3" stroke-miterlimit="10" width="42" height="7.2"/><line fill="none" stroke="#000000" stroke-width="3" stroke-miterlimit="10" x1="-73" y1="43.5" x2="-103" y2="43.5"/><line fill="none" stroke="#000000" stroke-width="3" stroke-miterlimit="10" x1="-73" y1="49.5" x2="-103" y2="49.5"/><line fill="none" stroke="#000000" stroke-width="3" stroke-miterlimit="10" x1="-73" y1="55.5" x2="-103" y2="55.5"/><line fill="none" stroke="#000000" stroke-width="3" stroke-miterlimit="10" x1="-73" y1="61.5" x2="-103" y2="61.5"/><line fill="none" stroke="#000000" stroke-width="3" stroke-miterlimit="10" x1="-73" y1="67.5" x2="-103" y2="67.5"/><line fill="none" stroke="#000000" stroke-width="3" stroke-miterlimit="10" x1="-73" y1="73.5" x2="-103" y2="73.5"/><rect x="-65.5" y="43.5" fill="none" stroke="#000000" stroke-width="3" stroke-miterlimit="10" width="27" height="6"/><rect x="-65.5" y="55.5" fill="none" stroke="#000000" stroke-width="3" stroke-miterlimit="10" width="27" height="6"/><rect x="-65.5" y="67.5" stroke="#000000" stroke-width="3" stroke-miterlimit="10" width="27" height="6"/><text x="0" y="115" fill="#000000" font-size="5px" font-weight="bold" font-family="'Helvetica Neue', Helvetica, Arial-Unicode, Arial, Sans-serif">Created by Nando Ramirez</text><text x="0" y="120" fill="#000000" font-size="5px" font-weight="bold" font-family="'Helvetica Neue', Helvetica, Arial-Unicode, Arial, Sans-serif">from the Noun Project</text></svg>