<svg width="48" height="auto" fill="#5433ff" xmlns="http://www.w3.org/2000/svg" data-name="out line" viewBox="0 0 64 80" x="0px" y="0px"><title>Articles-news-newspaper-paper</title><path d="M3,62H61a1,1,0,0,0,1-1V3a1,1,0,0,0-1-1H3A1,1,0,0,0,2,3V61A1,1,0,0,0,3,62ZM56,4h4V60H56ZM50,4h4V60H50ZM44,4h4V60H44ZM4,4H42V60H4Z"/><rect x="6" y="14" width="34" height="2"/><rect x="6" y="18" width="34" height="2"/><rect x="6" y="22" width="34" height="2"/><rect x="6" y="26" width="34" height="2"/><rect x="6" y="30" width="34" height="2"/><rect x="25" y="34" width="15" height="2"/><rect x="25" y="38" width="15" height="2"/><rect x="25" y="42" width="15" height="2"/><rect x="25" y="46" width="15" height="2"/><rect x="25" y="50" width="15" height="2"/><rect x="25" y="54" width="15" height="2"/><path d="M23,47V35a1,1,0,0,0-1-1H7a1,1,0,0,0-1,1V47a1,1,0,0,0,1,1H22A1,1,0,0,0,23,47Zm-2-1H8V36H21Z"/><rect x="8" y="50" width="13" height="2"/><rect x="8" y="54" width="13" height="2"/><rect x="13" y="8" width="20" height="2"/></svg>