<svg width="48px" height="auto" fill="#5433ff"  xmlns="http://www.w3.org/2000/svg" xmlns:xlink="http://www.w3.org/1999/xlink" viewBox="0 0 100 125" version="1.1" x="0px" y="0px"><title>Mobile/board 6</title><desc>Created with Sketch.</desc><g stroke="none" stroke-width="1" fill="#5433ff"  fill-rule="evenodd"><path d="M33,8 C30.790861,8 29,9.790861 29,12 L29,88 C29,90.209139 30.790861,92 33,92 L67,92 C69.209139,92 71,90.209139 71,88 L71,12 C71,9.790861 69.209139,8 67,8 L33,8 Z M33,6 L67,6 C70.3137085,6 73,8.6862915 73,12 L73,88 C73,91.3137085 70.3137085,94 67,94 L33,94 C29.6862915,94 27,91.3137085 27,88 L27,12 C27,8.6862915 29.6862915,6 33,6 Z M38.4464111,7.92089844 C47.37146,7.92089844 53.0954822,7.92089844 61.9272693,7.92089844 C61.6578602,8.05322266 61.1700132,8.10839844 60.968006,9.20715332 C60.968006,9.20715332 60.968006,9.20715332 60.968006,9.20715332 L60.968006,9.20715332 C60.7732439,10.2664998 59.8497726,11.0356675 58.7726713,11.0356675 L42.1814912,11.0356434 C41.0239145,11.0356434 39.9937604,10.3013949 39.616111,9.20715332 C39.616111,9.20715332 39.616111,9.20715332 39.616111,9.20715332 C39.4923702,8.84861378 39.2766113,7.92089844 38.4464111,7.92089844 Z" fill="#5433ff"  fill-rule="nonzero"/><rect fill="#5433ff"  x="33" y="16" width="34" height="57" rx="2"/><rect fill="#5433ff"  x="69" y="78" width="4" height="10" rx="2"/><rect fill="#5433ff"  x="33" y="78" width="10" height="10" rx="2"/><rect fill="#5433ff"  x="45" y="78" width="10" height="10" rx="2"/><rect fill="#5433ff"  x="57" y="78" width="10" height="10" rx="2"/></g></svg>