<svg width="48" height="auto" fill="#5433ff" xmlns="http://www.w3.org/2000/svg" xmlns:xlink="http://www.w3.org/1999/xlink" version="1.1" x="0px" y="0px" viewBox="0 0 24 30" style="enable-background:new 0 0 24 24;" xml:space="preserve"><g><g><g><path d="M23.5,20h-2c-0.185,0-0.354-0.102-0.44-0.264c-0.088-0.163-0.078-0.36,0.024-0.514L22.565,17H21.5     c-0.276,0-0.5-0.224-0.5-0.5s0.224-0.5,0.5-0.5h2c0.185,0,0.354,0.102,0.44,0.264c0.088,0.163,0.078,0.36-0.024,0.514L22.435,19     H23.5c0.276,0,0.5,0.224,0.5,0.5S23.776,20,23.5,20z"/></g><g><g><path d="M14.519,24H0.5C0.224,24,0,23.776,0,23.5v-2.402c0-0.041,0.005-0.082,0.015-0.121c0.262-1.044,0.671-2.065,1.89-2.472      l4.438-1.479c1.043-0.436,1.531-2.162,1.636-2.817C7.213,13.506,6.5,12.449,6.5,11.5c0-0.354-0.105-0.5-0.16-0.527      c-0.156-0.039-0.244-0.138-0.304-0.287C5.98,10.549,5.5,9.322,5.5,8.5c0-0.041,0.005-0.082,0.015-0.121      C5.569,8.159,5.723,7.839,6,7.651V5c0-2.088,1.902-5,5-5c3.061,0,3.892,1.569,3.989,2.345C15.508,2.729,16,3.389,16,5v2.651      c0.277,0.188,0.431,0.508,0.485,0.728C16.495,8.418,16.5,8.459,16.5,8.5c0,0.822-0.48,2.049-0.536,2.186      c-0.06,0.149-0.187,0.261-0.343,0.3C15.605,11,15.5,11.146,15.5,11.5c0,0.949-0.713,2.006-1.478,2.708      c0.091,0.567,0.468,1.948,1.284,2.597c0.216,0.172,0.252,0.486,0.08,0.703s-0.487,0.251-0.703,0.08      C13.403,16.568,13,14.496,13,14c0-0.149,0.066-0.29,0.182-0.386c0.655-0.541,1.318-1.441,1.318-2.114      c0-0.747,0.309-1.161,0.602-1.357c0.144-0.392,0.373-1.104,0.396-1.567c-0.018-0.039-0.041-0.08-0.057-0.094      C15.165,8.481,15,8.276,15,8V5c0-1.472-0.473-1.771-0.675-1.9C14.204,3.022,14,2.894,13.97,2.619      c-0.006-0.06,0.003-0.127,0.022-0.195C13.922,2.027,13.321,1,11,1C8.559,1,7,3.369,7,5v3c0,0.276-0.224,0.5-0.5,0.5      c0.024,0,0.015,0.034,0.002,0.072c0.022,0.466,0.253,1.179,0.396,1.57C7.191,10.338,7.5,10.753,7.5,11.5      c0,0.673,0.663,1.573,1.318,2.114C8.934,13.71,9,13.851,9,14c0,0.635-0.577,3.24-2.308,3.962l-4.472,1.492      C1.512,19.689,1.231,20.259,1,21.16V23h13.519c0.276,0,0.5,0.224,0.5,0.5S14.795,24,14.519,24z"/></g></g><g><path d="M20.5,24h-4c-0.192,0-0.367-0.11-0.45-0.283c-0.084-0.174-0.061-0.379,0.06-0.529L19.46,19H16.5     c-0.276,0-0.5-0.224-0.5-0.5s0.224-0.5,0.5-0.5h4c0.192,0,0.367,0.11,0.45,0.283c0.084,0.174,0.061,0.379-0.06,0.529L17.54,23     h2.96c0.276,0,0.5,0.224,0.5,0.5S20.776,24,20.5,24z"/></g></g></g></svg>