<svg xmlns="http://www.w3.org/2000/svg" xmlns:xlink="http://www.w3.org/1999/xlink" version="1.1" x="0px" y="0px" viewBox="0 0 64 80" style="enable-background:new 0 0 64 64;" xml:space="preserve"><g><circle cx="52" cy="58" r="1"/><circle cx="48" cy="58" r="1"/><circle cx="44" cy="58" r="1"/><path d="M60,1H28c-1.654,0-3,1.346-3,3v9H10c-2.757,0-5,2.243-5,5v35H4c-1.654,0-3,1.346-3,3c0,3.859,3.14,7,7,7h44   c3.86,0,7-3.141,7-7c0-1.654-1.346-3-3-3h-1V37h5c1.654,0,3-1.346,3-3V4C63,2.346,61.654,1,60,1z M28,3h32c0.551,0,1,0.449,1,1v5   H27V4C27,3.449,27.449,3,28,3z M25,33h-1.983c0.04-1.493,0.168-2.828,0.355-4H25V33z M26,45c-0.606,0-1.551-1.386-2.219-4h4.435   C27.538,43.659,26.581,45,26,45z M30.275,41h4.224c-1.399,1.7-3.294,2.955-5.452,3.571C29.565,43.571,29.972,42.339,30.275,41z    M22.963,44.564c-2.157-0.621-4.047-1.878-5.442-3.564h4.207C22.041,42.366,22.453,43.586,22.963,44.564z M16.214,39   c-0.626-1.221-1.034-2.57-1.164-4h5.966c0.037,1.367,0.152,2.719,0.342,4H16.214z M21.729,27h-4.207   c1.395-1.686,3.285-2.943,5.442-3.564C22.453,24.414,22.041,25.634,21.729,27z M25,23.882V27h-1.219   C24.14,25.596,24.576,24.55,25,23.882z M16.214,29h5.144c-0.19,1.281-0.304,2.633-0.342,4h-5.966   C15.18,31.57,15.588,30.221,16.214,29z M25,21.051C18.299,21.564,13,27.169,13,34c0,7.168,5.832,13,13,13   c6.088,0,11.269-4.159,12.642-10H49v12H11V19h14V21.051z M35.798,39h-5.152c0.098-0.664,0.175-1.336,0.231-2h5.703   C36.384,37.701,36.119,38.368,35.798,39z M28.627,39h-5.255c-0.187-1.172-0.315-2.507-0.355-4h2.167c0.414,1.161,1.514,2,2.816,2   h0.87C28.807,37.714,28.725,38.381,28.627,39z M57,56c0,2.757-2.243,5-5,5H8c-2.757,0-5-2.243-5-5c0-0.552,0.449-1,1-1h19v1   c0,1.654,1.346,3,3,3h8c1.654,0,3-1.346,3-3v-1h19C56.551,55,57,55.448,57,56z M25,55h10v1c0,0.552-0.449,1-1,1h-8   c-0.551,0-1-0.448-1-1V55z M53,53H7V18c0-1.654,1.346-3,3-3h15v2H11c-1.103,0-2,0.897-2,2v30c0,1.103,0.897,2,2,2h38   c1.103,0,2-0.897,2-2V37h2V53z M60,35H28c-0.551,0-1-0.448-1-1V11h34v23C61,34.552,60.551,35,60,35z"/><rect x="29" y="5" width="2" height="2"/><rect x="37" y="5" width="2" height="2"/><rect x="33" y="5" width="2" height="2"/><path d="M47,39h-8v8h8V39z M45,45h-4v-4h4V45z"/><path d="M29,21h30v-8H29V21z M31,15h26v4H31V15z"/><path d="M29,33h14V23H29V33z M31,25h10v6H31V25z"/><rect x="55" y="27" width="4" height="2"/><rect x="45" y="27" width="8" height="2"/><rect x="45" y="23" width="14" height="2"/><rect x="45" y="31" width="14" height="2"/></g><text x="0" y="79" fill="#5433ff" font-size="5px" font-weight="bold" font-family="'Helvetica Neue', Helvetica, Arial-Unicode, Arial, Sans-serif">Created by Eucalyp</text><text x="0" y="84" fill="#5433ff" font-size="5px" font-weight="bold" font-family="'Helvetica Neue', Helvetica, Arial-Unicode, Arial, Sans-serif">from the Noun Project</text></svg>