<svg width="48" height="auto" fill="#5433ff" xmlns="http://www.w3.org/2000/svg" xmlns:xlink="http://www.w3.org/1999/xlink" version="1.1" x="0px" y="0px" viewBox="0 0 56 70" style="enable-background:new 0 0 56 56;" xml:space="preserve"><path d="M51.9900513,17.2802124c0-2.5799561-2.1000366-4.6900024-4.6800537-4.6900024h-6.7699585  c0.1099854,0.6600342,0.1099854,1.3400269,0,2h6.7699585c1.4700317,0,2.6800537,1.210022,2.6800537,2.6900024v22.4100342H6  V17.2702637C6,15.8002319,7.2000122,14.59021,8.6700439,14.59021h10.4299927l1.1199951-2H8.6700439  C6.0900269,12.59021,4,14.6902466,4,17.2702637V42.59021c0,1.2400513,0.4900513,2.4200439,1.3700562,3.3000488  c0.789978,0.7999878,1.8199463,1.25,2.9299927,1.3399658c0.1300049,0.0100098,0.2599487,0.0400391,0.3899536,0.0400391h11.3500366  l-1.1500244,2.7299805h-2.7099609c-0.5500488,0-1,0.4500122-1,1s0.4499512,1,1,1h23.6499634c0.5499878,0,1-0.4500122,1-1  s-0.4500122-1-1-1h-2.7099609l-1.1500244-2.7299805h11.3499756C49.9000244,47.2702637,52,45.1702271,52,42.59021v-1.8999634  c0-0.0200195-0.0099487-0.0400391-0.0099487-0.0599976V17.2802124z"/><path d="M37.7779541,10.9974976c-0.6862183-0.9389648-1.7064209-1.5529785-2.8621216-1.7245483  c-0.8396606-0.1263428-1.6883545-0.0089722-2.4558105,0.3430786l-3.8733521-5.2546997  c-0.180603-0.2437744-0.4694824-0.3701782-0.7854614-0.361145c-0.3070068,0.0180664-0.5778809,0.1896362-0.7313843,0.4605103  l-6.9250488,12.3513184l-4.6859131,3.6115112c-0.5507813,0.406311-0.9119263,1.0021973-1.0112305,1.6793213  c-0.0993652,0.6771851,0.0631714,1.3543091,0.4694824,1.9050903l3.6837769,4.9929199  c0.40625,0.5507202,1.0021362,0.9028931,1.6702881,1.0112305c0.135437,0.0180664,0.2618408,0.0270386,0.3882446,0.0270386  c0.4514771,0,0.8938599-0.1173096,1.2911377-0.361145l3.7739868,4.2796631  c0.5327148,0.6049194,1.3001709,0.9389648,2.0856934,0.9389648c0.2617798,0,0.5326538-0.045105,0.8035278-0.1263428  c1.1917725-0.3612061,1.9592285-1.4626465,1.9592285-2.65448c0-0.2618408-0.0361328-0.5327148-0.1173706-0.8035889  c-0.1173706-0.3791504-0.3070068-0.72229-0.5778198-1.0202637l-3.512207-3.9726563l0.5056152-0.3972778l13.9765625-2.7537231  c0.3069458-0.0632324,0.5597534-0.270874,0.6680908-0.5598145s0.0722656-0.6139526-0.1173706-0.8667603l-3.873291-5.2546997  C38.8704834,14.979126,39.0239258,12.6858521,37.7779541,10.9974976z"/></svg>