<svg xmlns="http://www.w3.org/2000/svg" xmlns:xlink="http://www.w3.org/1999/xlink" version="1.1" x="0px" y="0px" viewBox="0 0 512 640" style="enable-background:new 0 0 512 512;" xml:space="preserve"><g><g><g><path d="M218.161,295.296c-8.649,4.523-18.401,7.097-28.82,7.097c-10.418,0-20.349-2.574-28.999-7.097     c-19.918,10.58-32.554,31.134-32.554,54.114v9.959h122.676v-9.959C250.464,326.43,238.079,305.876,218.161,295.296z"/><path d="M189.413,272.859c18.215,0,33.034-14.819,33.034-33.035s-14.819-33.035-33.034-33.035s-33.034,14.819-33.034,33.035     S171.198,272.859,189.413,272.859z"/><path d="M389.965,192.388l-52.893,42.201c-9.491,7.589-24.135,0.582-24.135-11.531v-30.67h-8.8     c-17.026,0-30.956-13.93-30.956-30.956v-5.394H84.402c-5.5,0-10,4.5-10,10v234.447c0,5.523,4.477,10,10,10H198.5     c7.997,0,14.48,6.483,14.48,14.48v15.054h84.056v-15.335c0-7.842,6.357-14.199,14.199-14.199h114.379c5.523,0,10-4.477,10-10     V202.388c0-5.523-4.477-10-10-10H389.965z M279.997,374.502c0,8.156-6.324,14.401-14.48,14.401H113.308     c-8.155,0-15.053-6.245-15.053-14.401V349.41c0-30.408,14.95-57.944,39.135-74.647c-6.745-9.984-10.616-22.01-10.616-34.938     c0-34.5,28.104-62.569,62.603-62.569s62.585,28.069,62.585,62.569c0,12.929-4.077,24.954-10.822,34.938     c24.185,16.703,38.857,44.239,38.857,74.647V374.502z"/></g><path d="M23,440.019C29.7,468.628,55.426,490,86.047,490h338.494c30.621,0,56.347-21.372,63.047-49.981h-161.02v14.199    c0,8.156-6.324,15.335-14.48,15.335H198.5c-8.155,0-15.053-7.179-15.053-15.335v-14.199H23z"/><path d="M479,22H312.715c-5.5,0-10,4.5-10,10v129.718c0,0.627,0.509,1.136,1.136,1.136h24.14c7.997,0,14.48,6.483,14.48,14.48v15    l32.947-26.244c2.618-2.094,6.015-3.236,9.368-3.236H479c5.523,0,10-4.477,10-10V32C489,26.477,484.523,22,479,22z M444.7,135.592    h-98.822v-29.534H444.7V135.592z M444.7,78.796h-98.822V49.262H444.7V78.796z"/></g></g><text x="0" y="527" fill="#5433ff" font-size="5px" font-weight="bold" font-family="'Helvetica Neue', Helvetica, Arial-Unicode, Arial, Sans-serif">Created by Shocho</text><text x="0" y="532" fill="#5433ff" font-size="5px" font-weight="bold" font-family="'Helvetica Neue', Helvetica, Arial-Unicode, Arial, Sans-serif">from the Noun Project</text></svg>