<svg width="48" height="auto" fill="#5433ff" xmlns="http://www.w3.org/2000/svg" xmlns:xlink="http://www.w3.org/1999/xlink" version="1.1" x="0px" y="0px" viewBox="0 0 100 125" enable-background="new 0 0 100 100" xml:space="preserve"><path fill-rule="evenodd" clip-rule="evenodd" d="M71.538,14.653c0.1,0.3,0.033,0.533-0.2,0.7c-4.367,3.034-6.334,7.5-5.9,13.4  h5.051c0.266,0,0.434,0.117,0.5,0.35c0.1,0.2,0.066,0.4-0.101,0.6l-2,1.9l24.201-2.7h0.15c0.266,0,0.449,0.117,0.549,0.35l1.1,1.55  c0.068,0.067,0.102,0.183,0.102,0.35v45c-0.135,2.333-1.451,3.533-3.951,3.6l-0.449,0.05l-37.25-1.3l-0.8,3.05  c-0.034,0.167-0.116,0.283-0.25,0.35c-0.134,0.066-0.267,0.083-0.4,0.05l-9.5-2.15h-0.05l-0.9-0.2c-0.3,0.034-0.566,0.167-0.8,0.4  c-0.3,0.267-0.45,0.617-0.45,1.05c0,0.333,0.15,0.617,0.45,0.85c0.2,0.2,0.4,0.35,0.601,0.45c0.133,0.034,0.232,0.133,0.3,0.3  c0.033,0.133,0.033,0.283,0,0.45l-0.9,2.2c-0.134,0.233-0.333,0.35-0.6,0.35l-34.65-12.3c-0.134,0-0.25-0.1-0.35-0.3  c-0.034-0.133-0.034-0.267,0-0.4l0.75-1.5c0.1-0.133,0.216-0.233,0.35-0.3c0.167-0.033,0.3-0.017,0.4,0.05  c0.233,0.133,0.466,0.2,0.7,0.2c0.333,0.034,0.649-0.066,0.949-0.3c0.301-0.233,0.45-0.55,0.45-0.95v-0.05  c0.067-0.367-0.033-0.683-0.3-0.95c-0.133-0.167-0.3-0.283-0.5-0.35c-0.166-0.034-0.283-0.15-0.35-0.35  c-0.101-0.133-0.101-0.3,0-0.5l1.199-2.3c0.167-0.3,0.4-0.383,0.7-0.25c0.067,0.034,0.284,0.067,0.65,0.1  c0.366,0.067,0.667-0.017,0.899-0.25c0.301-0.233,0.467-0.566,0.5-1c0-0.367-0.1-0.7-0.3-1l-0.45-0.3  c-0.166-0.067-0.266-0.167-0.3-0.3c-0.066-0.133-0.066-0.3,0-0.5l1.05-2.05c0.101-0.133,0.2-0.233,0.301-0.3  c0.232-0.034,0.399-0.017,0.5,0.05c0.1,0.067,0.283,0.117,0.55,0.15c0.399,0.033,0.716-0.066,0.95-0.3  c0.366-0.233,0.55-0.533,0.55-0.9s-0.101-0.733-0.3-1.1l-0.551-0.3c-0.133-0.066-0.232-0.167-0.3-0.3  c-0.033-0.167-0.017-0.3,0.05-0.4l0.851-1.75c0.167-0.267,0.399-0.367,0.7-0.3l6.05,1.8l0.75-2.15  c0.134-0.267,0.316-0.383,0.55-0.35l12.25,1.35v-19c0-0.333,0.184-0.517,0.55-0.55l20.75-2.35l-3.35-3.35  c-0.167-0.167-0.2-0.367-0.101-0.6c0.066-0.2,0.234-0.3,0.5-0.3l4.301-0.1c1.467-8.6,6.1-13.4,13.899-14.4  C71.187,14.32,71.404,14.42,71.538,14.653z M65.288,35.203l24-2.5c0.066-0.033,0.135-0.017,0.201,0.05c0.066,0.033,0.1,0.1,0.1,0.2  v42.5c0,0.067-0.033,0.133-0.1,0.2c-0.066,0.066-0.135,0.1-0.201,0.1l-36.9-0.95c-0.066,0.033-0.134,0.067-0.2,0.1  c-0.1,0.066-0.149,0.133-0.149,0.2c-0.233,0.333-0.317,0.7-0.25,1.1c0.066,0.333,0.267,0.617,0.6,0.85  c0.134,0.133,0.333,0.217,0.601,0.25c0.066,0,0.166,0.033,0.3,0.1l37.349,1.25l0.352-0.05c0.5,0,0.934-0.05,1.299-0.15  c0.434-0.4,0.65-1,0.65-1.8v-46.65l-25.35,2.95L65.288,35.203z M64.837,29.853c-0.334,0-0.517-0.167-0.55-0.5  c-0.434-5.667,1.1-10.167,4.6-13.5c-6.066,1.5-9.683,6.017-10.85,13.55c-0.067,0.267-0.25,0.417-0.55,0.45l-3.45,0.05l7.45,7.35  l7.6-7.4H64.837z M56.687,34.103l-21.199,2.35v18.7l1.949,0.2v-17.05c0-0.2,0.084-0.3,0.25-0.3l20.75-2.15L56.687,34.103z   M84.037,37.753l-41.6,2.9v5.7l41.6-1.9V37.753z M83.988,52.253l-31,0.65v4.25l4.399,0.45c0.167,0,0.3,0.1,0.4,0.3  c0.1,0.1,0.134,0.25,0.1,0.45l-0.7,3.45c-0.033,0.167-0.116,0.3-0.25,0.4c-0.199,0.067-0.366,0.1-0.5,0.1  c-0.199-0.067-0.383-0.067-0.55,0h-0.05c-0.4,0.033-0.684,0.2-0.85,0.5c-0.268,0.3-0.367,0.633-0.301,1v0.15  c0.066,0.333,0.25,0.583,0.551,0.75c0.199,0.133,0.416,0.217,0.649,0.25c0.134,0.067,0.233,0.15,0.3,0.25  c0.101,0.133,0.117,0.283,0.051,0.45l-0.45,2.2c-0.101,0.367-0.333,0.517-0.7,0.45c-0.267-0.067-0.467-0.067-0.6,0  c-0.4,0.1-0.684,0.283-0.851,0.55c-0.233,0.3-0.316,0.633-0.25,1c0.067,0.4,0.25,0.7,0.55,0.9l0.551,0.3  c0.366,0.1,0.5,0.3,0.399,0.6v0.15l28.951,0.7L83.988,52.253z M52.988,52.353l31-0.65l0.049-2.75l-31.049,1.05V52.353z   M56.137,61.103l0.5-2.4l-10.25-1.2l-1.3,5.95l3.5,1.05c0.1,0.033,0.184,0.083,0.25,0.15c0.033,0.1,0.033,0.167,0,0.2l-1.25,2.8  c0,0.066-0.033,0.117-0.1,0.15c-0.101,0.033-0.184,0.033-0.25,0c-0.167-0.1-0.4-0.15-0.7-0.15c-0.467,0-0.851,0.167-1.15,0.5  c-0.333,0.367-0.5,0.767-0.5,1.2c0,0.4,0.167,0.784,0.5,1.15c0.167,0.2,0.366,0.333,0.601,0.4c0.066,0.033,0.116,0.083,0.149,0.15  c0.034,0.1,0.034,0.167,0,0.2l-0.85,2.1c-0.067,0.167-0.184,0.233-0.351,0.2c-0.232-0.067-0.482-0.1-0.75-0.1  c-0.434,0-0.8,0.133-1.1,0.4c-0.166,0.167-0.283,0.333-0.35,0.5c-0.167,0.233-0.25,0.483-0.25,0.75c0,0.434,0.199,0.8,0.6,1.1  c0.166,0.2,0.35,0.35,0.55,0.45c0.167,0.1,0.217,0.217,0.15,0.35l-0.75,1.85l8.55,1.9l0.6-2.5l-0.449-0.3  c-0.566-0.4-0.934-0.933-1.101-1.6c-0.1-0.7,0.067-1.35,0.5-1.95c0.034-0.067,0.15-0.2,0.351-0.4c0.333-0.267,0.732-0.45,1.199-0.55  c0.301-0.033,0.518-0.033,0.65,0l0.35-1.6l-0.35-0.15c-0.566-0.4-0.934-0.95-1.1-1.65c-0.134-0.667,0.016-1.3,0.449-1.9  c0.4-0.533,0.934-0.867,1.601-1c0.1,0,0.25,0,0.45,0l0.35-1.3c-0.2-0.066-0.367-0.15-0.5-0.25c-0.5-0.333-0.816-0.783-0.95-1.35  l-0.05-0.25c-0.1-0.667,0.033-1.284,0.4-1.85c0.366-0.567,0.916-0.9,1.649-1C55.738,61.12,55.904,61.103,56.137,61.103z   M65.687,75.703c0.234,0.2,0.351,0.45,0.351,0.75c0,0.3-0.134,0.55-0.4,0.75c-0.233,0.167-0.517,0.25-0.85,0.25l-7.3-0.25  c-0.268-0.033-0.533-0.117-0.801-0.25h-0.05c-0.233-0.267-0.35-0.533-0.35-0.8c0.033-0.3,0.149-0.533,0.35-0.7  c0.267-0.2,0.567-0.283,0.9-0.25l7.3,0.25C65.205,75.453,65.488,75.537,65.687,75.703z M37.437,61.853l-15.6-4.55l-8.25,17.8  l15.85,5.6l8-18.7V61.853z M45.837,57.453l-16.8-1.9l-0.9,3l16.351,4.75L45.837,57.453z M22.488,54.803l-0.75,1.9l5.85,1.7l0.9-2.95  L22.488,54.803z"/></svg>