<svg width="48" height="auto" fill="#5433ff" xmlns="http://www.w3.org/2000/svg" viewBox="0 0 64 80" x="0px" y="0px"><title>promotion, promo, event</title><g data-name="34"><path d="M56.21,7h-.42A2.79,2.79,0,0,0,53,9.79a.77.77,0,0,1-.5.72L20.81,23H10a5,5,0,0,0-5,5v6a5,5,0,0,0,5,5h4V53a4,4,0,0,0,8,0V39.47l30.5,12a.77.77,0,0,1,.5.72A2.79,2.79,0,0,0,55.79,55h.42A2.79,2.79,0,0,0,59,52.21V9.79A2.79,2.79,0,0,0,56.21,7ZM7,34V28a3,3,0,0,1,3-3H20V37H10A3,3,0,0,1,7,34ZM20,53a2,2,0,0,1-4,0V39h4Zm37-.79a.79.79,0,0,1-.79.79h-.42a.79.79,0,0,1-.79-.79,2.78,2.78,0,0,0-1.76-2.59L22,37.32V24.68l31.24-12.3A2.78,2.78,0,0,0,55,9.79.79.79,0,0,1,55.79,9h.42a.79.79,0,0,1,.79.79Z"/></g></svg>