<svg width="48" height="auto" fill="#5433ff" xmlns="http://www.w3.org/2000/svg" xmlns:xlink="http://www.w3.org/1999/xlink" viewBox="0 0 99 123.75" version="1.1" x="0px" y="0px"><title>Group 47</title><desc>Created with Sketch.</desc><g stroke="none" stroke-width="1" fill="none" fill-rule="evenodd"><g fill="#5433ff" fill-rule="nonzero"><path d="M45.7306627,36.4879679 C44.6260932,36.4879679 43.7306627,35.5925374 43.7306627,34.4879679 C43.7306627,33.3833984 44.6260932,32.4879679 45.7306627,32.4879679 L75.3682677,32.4879679 C76.4728372,32.4879679 77.3682677,33.3833984 77.3682677,34.4879679 C77.3682677,35.5925374 76.4728372,36.4879679 75.3682677,36.4879679 L45.7306627,36.4879679 Z"/><path d="M34.982632,26.6610582 C35.6719014,25.7979351 36.9303642,25.6569989 37.7934873,26.3462684 C38.6566103,27.0355378 38.7975465,28.2940006 38.1082771,29.1571236 L26.8709243,43.2288609 L21.1498562,35.88909 C20.4708026,35.0179069 20.6265543,33.7611918 21.4977374,33.0821382 C22.3689205,32.4030846 23.6256357,32.5588363 24.3046893,33.4300194 L26.9089631,36.7711391 L34.982632,26.6610582 Z"/><path d="M45.7306627,52.0334225 C44.6260932,52.0334225 43.7306627,51.137992 43.7306627,50.0334225 C43.7306627,48.928853 44.6260932,48.0334225 45.7306627,48.0334225 L75.3682677,48.0334225 C76.4728372,48.0334225 77.3682677,48.928853 77.3682677,50.0334225 C77.3682677,51.137992 76.4728372,52.0334225 75.3682677,52.0334225 L45.7306627,52.0334225 Z"/><path d="M34.982632,42.2065127 C35.6719014,41.3433897 36.9303642,41.2024535 37.7934873,41.8917229 C38.6566103,42.5809923 38.7975465,43.8394551 38.1082771,44.7025782 L26.8709243,58.7743154 L21.1498562,51.4345446 C20.4708026,50.5633615 20.6265543,49.3066463 21.4977374,48.6275927 C22.3689205,47.9485391 23.6256357,48.1042908 24.3046893,48.9754739 L26.9089631,52.3165937 L34.982632,42.2065127 Z"/><path d="M45.7306627,67.578877 C44.6260932,67.578877 43.7306627,66.6834465 43.7306627,65.578877 C43.7306627,64.4743075 44.6260932,63.578877 45.7306627,63.578877 L75.3682677,63.578877 C76.4728372,63.578877 77.3682677,64.4743075 77.3682677,65.578877 C77.3682677,66.6834465 76.4728372,67.578877 75.3682677,67.578877 L45.7306627,67.578877 Z"/><path d="M34.982632,57.7519673 C35.6719014,56.8888442 36.9303642,56.747908 37.7934873,57.4371774 C38.6566103,58.1264469 38.7975465,59.3849097 38.1082771,60.2480327 L26.8709243,74.31977 L21.1498562,66.9799991 C20.4708026,66.108816 20.6265543,64.8521009 21.4977374,64.1730473 C22.3689205,63.4939937 23.6256357,63.6497454 24.3046893,64.5209285 L26.9089631,67.8620482 L34.982632,57.7519673 Z"/><path d="M49.5,99 C22.1619049,99 0,76.8380951 0,49.5 C0,22.1619049 22.1619049,0 49.5,0 C76.8380951,0 99,22.1619049 99,49.5 C99,76.8380951 76.8380951,99 49.5,99 Z M49.5,95 C74.6289561,95 95,74.6289561 95,49.5 C95,24.3710439 74.6289561,4 49.5,4 C24.3710439,4 4,24.3710439 4,49.5 C4,74.6289561 24.3710439,95 49.5,95 Z"/></g></g></svg>