<svg xmlns="http://www.w3.org/2000/svg" xmlns:xlink="http://www.w3.org/1999/xlink" version="1.1" x="0px" y="0px" viewBox="0 0 100 125" enable-background="new 0 0 100 100" xml:space="preserve"><g><path d="M84.3,26.5h-68c-1.1,0-2,0.9-2,2v45c0,1.1,0.9,2,2,2h68c1.1,0,2-0.9,2-2v-45C86.3,27.4,85.4,26.5,84.3,26.5z M82.3,30.5v9   h-64v-9H82.3z M18.3,71.5v-28h64v28H18.3z"/><circle cx="23.7" cy="35.2" r="2"/><circle cx="29.1" cy="35.2" r="2"/><circle cx="34.5" cy="35.2" r="2"/><path d="M67.1,48H33.4c-1.1,0-2,0.9-2,2s0.9,2,2,2h33.8c1.1,0,2-0.9,2-2S68.2,48,67.1,48z"/><path d="M61.6,55.8H38.9c-1.1,0-2,0.9-2,2v7.8c0,1.1,0.9,2,2,2h22.7c1.1,0,2-0.9,2-2v-7.8C63.6,56.7,62.7,55.8,61.6,55.8z    M59.6,63.5H40.9v-3.8h18.7V63.5z"/></g><text x="0" y="115" fill="#5433ff" font-size="5px" font-weight="bold" font-family="'Helvetica Neue', Helvetica, Arial-Unicode, Arial, Sans-serif">Created by Blake Stevenson</text><text x="0" y="120" fill="#5433ff" font-size="5px" font-weight="bold" font-family="'Helvetica Neue', Helvetica, Arial-Unicode, Arial, Sans-serif">from the Noun Project</text></svg>