<svg width="48" height="auto" fill="#5433ff" xmlns="http://www.w3.org/2000/svg" xmlns:xlink="http://www.w3.org/1999/xlink" version="1.1" x="0px" y="0px" viewBox="0 0 100 125" enable-background="new 0 0 100 100" xml:space="preserve"><path d="M92.2,89.5c3.7,0,6.8-3,6.8-6.8V17.2c0-3.7-3-6.8-6.8-6.8H7.8c-3.7,0-6.8,3-6.8,6.8v65.5c0,3.7,3,6.8,6.8,6.8H92.2z M7.8,14  h84.4c1.8,0,3.3,1.5,3.3,3.3v12.1h-91V17.2C4.5,15.4,6,14,7.8,14z M4.5,82.8V32.9h91v49.9c0,1.8-1.5,3.3-3.3,3.3H7.8  C6,86,4.5,84.6,4.5,82.8z M11,22.9c-0.3-0.3-0.5-0.8-0.5-1.2c0-0.5,0.2-0.9,0.5-1.2c0.6-0.6,1.8-0.6,2.5,0c0.3,0.3,0.5,0.8,0.5,1.2  c0,0.5-0.2,0.9-0.5,1.2c-0.3,0.3-0.8,0.5-1.2,0.5C11.8,23.4,11.3,23.2,11,22.9z M20.4,22.9c-0.3-0.3-0.5-0.8-0.5-1.2  s0.2-0.9,0.5-1.2c0.7-0.6,1.8-0.6,2.5,0c0.3,0.3,0.5,0.8,0.5,1.2s-0.2,0.9-0.5,1.2c-0.3,0.3-0.8,0.5-1.2,0.5  C21.2,23.4,20.8,23.2,20.4,22.9z M29.9,22.9c-0.3-0.3-0.5-0.8-0.5-1.2s0.2-0.9,0.5-1.2c0.6-0.6,1.8-0.6,2.5,0  c0.3,0.3,0.5,0.8,0.5,1.2s-0.2,0.9-0.5,1.2c-0.3,0.3-0.8,0.5-1.2,0.5S30.2,23.2,29.9,22.9z M48.3,42.6c0-1,0.8-1.8,1.8-1.8h35.4  c1,0,1.8,0.8,1.8,1.8s-0.8,1.8-1.8,1.8H50C49,44.4,48.3,43.6,48.3,42.6z M48.3,53.9c0-1,0.8-1.8,1.8-1.8h16.8c1,0,1.8,0.8,1.8,1.8  s-0.8,1.8-1.8,1.8H50C49,55.7,48.3,54.9,48.3,53.9z M48.3,65.3c0-1,0.8-1.8,1.8-1.8h35.4c1,0,1.8,0.8,1.8,1.8S86.3,67,85.4,67H50  C49,67,48.3,66.2,48.3,65.3z M12.9,76.6c0-1,0.8-1.8,1.8-1.8h70.7c1,0,1.8,0.8,1.8,1.8s-0.8,1.8-1.8,1.8H14.6  C13.7,78.3,12.9,77.6,12.9,76.6z M15.6,66.8h24.5c1,0,1.8-0.8,1.8-1.8V42.6c0-1-0.8-1.8-1.8-1.8H15.6c-1,0-1.8,0.8-1.8,1.8V65  C13.8,66,14.6,66.8,15.6,66.8z M17.3,44.4h21v18.9h-21V44.4z"/></svg>