<svg  width="48" height="auto" fill="#5433ff" xmlns="http://www.w3.org/2000/svg" xmlns:xlink="http://www.w3.org/1999/xlink" version="1.1" x="0px" y="0px" viewBox="0 0 100 125" enable-background="new 0 0 100 100" xml:space="preserve"><path d="M29,17c0-4.971,4.029-9,9-9s9,4.029,9,9s-4.029,9-9,9S29,21.971,29,17z"/><path d="M65,47c0,1.657-1.343,3-3,3H47v12l-2.73,27.298C44.117,90.832,42.826,92,41.285,92h-6.57c-1.541,0-2.832-1.168-2.985-2.702  L29,62h-3c-1.657,0-3-1.343-3-3V41c0-4.971,4.029-9,9-9h12c4.971,0,9,4.029,9,9v3h9C63.657,44,65,45.343,65,47z"/><path d="M77,27.5v6c0,2.481-2.019,4.5-4.5,4.5H71v3h-6v-3h-3c-1.658,0-3-1.343-3-3s1.342-3,3-3h9v-3h-7.5  c-2.481,0-4.5-2.019-4.5-4.5v-6c0-2.481,2.019-4.5,4.5-4.5H65v-3h6v3h3c1.658,0,3,1.343,3,3s-1.342,3-3,3h-9v3h7.5  C74.981,23,77,25.019,77,27.5z"/></svg>