<svg  width="48" height="auto" fill="#5433ff" xmlns="http://www.w3.org/2000/svg" xmlns:xlink="http://www.w3.org/1999/xlink" version="1.1" x="0px" y="0px" viewBox="0 0 300 375" style="enable-background:new 0 0 300 300;" xml:space="preserve"><path d="M228.5,17.85c-27.13,0-49.21,22.08-49.21,49.21s22.08,49.21,49.21,49.21s49.21-22.08,49.21-49.21S255.63,17.85,228.5,17.85z   M229.38,34.63c7.42,0,13.43,6.01,13.43,13.43c0,7.42-6.01,13.43-13.43,13.43s-13.43-6.01-13.43-13.43  C215.94,40.65,221.96,34.63,229.38,34.63z M207.93,102.74V88.12c0-10.29,8.42-18.72,18.72-18.72h5.47  c10.29,0,18.72,8.42,18.72,18.72v13.54c-6.44,4.17-14.1,6.6-22.32,6.6C221.01,108.27,213.99,106.25,207.93,102.74z"/><g><g><path d="M121.87,207.67l-16.8,16.8c-9.39,9.39-24.66,9.39-34.04,0s-9.39-24.66,0-34.05l16.8-16.8l-28.28-28.28l-16.8,16.8    c-24.98,24.98-24.98,65.63,0,90.61c24.98,24.98,65.63,24.98,90.61,0l16.8-16.8L121.87,207.67z"/><rect x="76.86" y="118.17" transform="matrix(0.7071 -0.7071 0.7071 0.7071 -69.88 107.6423)" width="36.27" height="40"/><rect x="139.19" y="180.5" transform="matrix(0.7071 -0.7071 0.7071 0.7071 -95.6976 169.9716)" width="36.27" height="40"/></g><g><path d="M119.84,122.1c-0.66,0-1.32-0.16-1.93-0.5c-1.93-1.07-2.63-3.5-1.56-5.44l11.26-20.34c0.51-0.93,1.38-1.61,2.39-1.91    c1.02-0.29,2.11-0.17,3.04,0.34l13.52,7.48L154.71,87c1.07-1.93,3.51-2.63,5.44-1.56c1.93,1.07,2.63,3.5,1.56,5.44l-10.09,18.24    c-0.51,0.93-1.38,1.61-2.4,1.91c-1.02,0.29-2.11,0.17-3.04-0.34l-13.52-7.48l-9.32,16.84C122.61,121.35,121.24,122.1,119.84,122.1    z"/></g><g><path d="M175.72,177.98c-0.66,0-1.32-0.16-1.93-0.5c-1.93-1.07-2.63-3.5-1.56-5.44l11.26-20.34c0.51-0.93,1.38-1.61,2.39-1.91    c1.02-0.29,2.11-0.17,3.04,0.34l13.52,7.48l8.16-14.74c1.07-1.93,3.51-2.63,5.44-1.56c1.93,1.07,2.63,3.5,1.56,5.44L207.5,165    c-0.51,0.93-1.38,1.61-2.39,1.91c-1.02,0.29-2.11,0.17-3.04-0.34l-13.52-7.48l-9.32,16.84    C178.5,177.24,177.13,177.98,175.72,177.98z"/></g></g></svg>