<svg xmlns="http://www.w3.org/2000/svg" xmlns:xlink="http://www.w3.org/1999/xlink" version="1.1" x="0px" y="0px" viewBox="0 0 100 125" style="enable-background:new 0 0 100 100;" xml:space="preserve"><path d="M50,5C25.19,5,5,25.19,5,50c0,7.51,1.89,14.93,5.47,21.5L6.96,86.75c-0.31,1.35,0.09,2.75,1.07,3.73  c0.98,0.98,2.38,1.38,3.73,1.07l14.48-3.34C33.37,92.65,41.56,95,50,95c24.81,0,45-20.19,45-45C95,25.19,74.81,5,50,5z M50,91  c-7.95,0-15.66-2.29-22.31-6.61c-0.33-0.21-0.71-0.32-1.09-0.32c-0.15,0-0.3,0.02-0.45,0.05l-15.29,3.53l3.69-15.99  c0.11-0.49,0.04-1-0.21-1.44C10.84,64.07,9,57.08,9,50C9,27.39,27.39,9,50,9s41,18.39,41,41S72.61,91,50,91z M70,41h-6.27l2.19-7.44  c0.31-1.06-0.29-2.17-1.35-2.48c-1.06-0.31-2.17,0.29-2.48,1.35L59.56,41H45.73l2.19-7.44c0.31-1.06-0.29-2.17-1.35-2.48  c-1.06-0.31-2.17,0.29-2.48,1.35L41.56,41H34c-1.1,0-2,0.9-2,2s0.9,2,2,2h6.39l-2.94,10H30c-1.1,0-2,0.9-2,2s0.9,2,2,2h6.27  l-2.19,7.44c-0.31,1.06,0.29,2.17,1.35,2.48C35.62,68.97,35.81,69,36,69c0.86,0,1.66-0.57,1.92-1.44L40.44,59h13.83l-2.19,7.44  c-0.31,1.06,0.29,2.17,1.35,2.48C53.62,68.97,53.81,69,54,69c0.86,0,1.66-0.57,1.92-1.44L58.44,59H66c1.1,0,2-0.9,2-2s-0.9-2-2-2  h-6.39l2.94-10H70c1.1,0,2-0.9,2-2S71.1,41,70,41z M55.44,55H41.61l2.94-10h13.83L55.44,55z"/><text x="0" y="115" fill="#000000" font-size="5px" font-weight="bold" font-family="'Helvetica Neue', Helvetica, Arial-Unicode, Arial, Sans-serif">Created by IconMark</text><text x="0" y="120" fill="#000000" font-size="5px" font-weight="bold" font-family="'Helvetica Neue', Helvetica, Arial-Unicode, Arial, Sans-serif">from the Noun Project</text></svg>