<svg xmlns="http://www.w3.org/2000/svg" viewBox="0 0 64 80" x="0px" y="0px" fill="#5433ff" width="48px" height="auto"><g><path d="M38.6,38a3,3,0,0,0,2.623-4.457l-6.6-11.881A2.963,2.963,0,0,0,32,20.118h0a2.965,2.965,0,0,0-2.623,1.543l-6.6,11.882A3,3,0,0,0,25.4,38ZM24.537,35.507a.982.982,0,0,1-.012-.992l6.6-11.882a1,1,0,0,1,1.749,0l6.6,11.881A1,1,0,0,1,38.6,36H25.4A.985.985,0,0,1,24.537,35.507Z"/><rect x="31" y="26" width="2" height="4"/><rect x="31" y="32" width="2" height="2"/><path d="M44,2H20a7.008,7.008,0,0,0-7,7V31.152l-6.238,10.8A16.886,16.886,0,0,0,4.586,52.332L5.673,62.11l1.987-.22L6.574,52.111a14.9,14.9,0,0,1,1.92-9.16L13,35.15V48.124l-.563.974,1.733,1,5-8.66a2,2,0,1,1,3.464,2l-3.5,6.062a1,1,0,0,0-.063.872l1.285,3.211A8.963,8.963,0,0,1,21,56.926v1.3a8.975,8.975,0,0,1-.664,3.393l1.852.754c.051-.124.087-.252.133-.377H44a7.008,7.008,0,0,0,7-7V9A7.008,7.008,0,0,0,44,2ZM20,4H44a5.006,5.006,0,0,1,5,5v1H15V9A5.006,5.006,0,0,1,20,4Zm4.366,40.438a4,4,0,0,0-6.929-4L15,44.66V12H49V52H21.877l-.768-1.92ZM44,60H22.846A11,11,0,0,0,23,58.23v-1.3A10.954,10.954,0,0,0,22.6,54H49v1A5.006,5.006,0,0,1,44,60Z"/><rect x="25" y="6" width="2" height="2"/><rect x="29" y="6" width="6" height="2"/><rect x="30" y="56" width="4" height="2"/><path d="M17,15v4h2V16h3V14H18A1,1,0,0,0,17,15Z"/><rect x="17" y="21" width="2" height="2"/></g></svg>