<svg  width="48" height="auto" fill="#5433ff" xmlns="http://www.w3.org/2000/svg" xmlns:xlink="http://www.w3.org/1999/xlink" version="1.1" x="0px" y="0px" viewBox="0 0 100 125" enable-background="new 0 0 100 100" xml:space="preserve"><path d="M56.2,78.8c0,2.4,0.4,4.8,1.2,7h-48c-1.6,0-2.9-1.3-2.9-2.9v-3.9c0-5,2.4-9.8,6.4-12.8c8.7-6.5,17.1-10.7,18.9-11.6  c0.2-0.1,0.4-0.4,0.4-0.6v-5.7c-1.5-2.5-2.2-5.2-2.6-7.7c-0.9-0.1-2-1.3-3.2-5.6c-1.7-5.9,0.1-6.8,1.6-6.6c-1.1-3.1-1.1-6.2-0.4-9  c0.8-3.3,2.6-6,4.6-8c1.3-1.4,2.7-2.5,4.2-3.5c1.2-0.9,2.6-1.6,4.1-2.1l0,0c1.2-0.4,2.4-0.7,3.8-0.7c4.1-0.4,7.2,0.7,9.4,2  c3.3,1.8,4.6,4.3,4.6,4.3s8.4,0.6,4.7,18.1c1.1,0.4,1.9,1.9,0.6,6.5c-1.6,5.7-3.1,6-3.9,5.4c-0.3,2-0.9,4.1-1.9,6.1  c0,2.8,0,5.5,0,6.5c0,0.3,0.2,0.5,0.4,0.6c1.2,0.6,5,2.5,9.8,5.5C61.1,63.4,56.2,70.5,56.2,78.8z M93.4,78.8c0,9-7.3,16.4-16.4,16.4  c-9,0-16.4-7.3-16.4-16.4c0-9,7.3-16.4,16.4-16.4C86.1,62.4,93.4,69.8,93.4,78.8z M85.3,74.5c0-0.5-0.2-1-0.6-1.4  c-0.8-0.8-2-0.8-2.8,0l-7.1,7.1l-2.7-2.7c-0.8-0.8-2-0.8-2.8,0c-0.4,0.4-0.6,0.9-0.6,1.4c0,0.5,0.2,1,0.6,1.4l4.1,4.1  c0.8,0.8,2,0.8,2.8,0l8.5-8.5C85.1,75.6,85.3,75.1,85.3,74.5z"/></svg>