<svg xmlns="http://www.w3.org/2000/svg" xmlns:xlink="http://www.w3.org/1999/xlink" version="1.1" x="0px" y="0px" viewBox="0 0 65 81.25" enable-background="new 0 0 65 65" xml:space="preserve"><g><path d="M60.5,2.1h-56c-2.6,0-4.8,2.1-4.8,4.8v51.4c0,2.6,2.1,4.8,4.8,4.8h56c2.6,0,4.8-2.1,4.8-4.8V6.8   C65.3,4.2,63.1,2.1,60.5,2.1z M4.5,3.6h56c1.8,0,3.3,1.5,3.3,3.3V10H1.3V6.8C1.3,5,2.7,3.6,4.5,3.6z M60.5,61.4h-56   c-1.8,0-3.3-1.5-3.3-3.3V11.5h62.5v46.6C63.8,60,62.3,61.4,60.5,61.4z"/><rect x="58.7" y="6.1" width="1.5" height="1.5"/><rect x="54.9" y="6.1" width="1.5" height="1.5"/><rect x="51.1" y="6.1" width="1.5" height="1.5"/><rect x="5.7" y="6.1" width="40.3" height="1.5"/><path d="M5.8,49.9h9.7l5.2,7.6l5.6-7.6h32.9v-31H5.8V49.9z M7.3,20.3h50.4v28H25.6l-4.8,6.5l-4.5-6.5h-9V20.3z"/><path d="M27.1,37.2l-1.3,7.5l6.7-3.6l6.7,3.6l-1.3-7.5l5.5-5.3l-7.6-1l-3.3-6.9l-3.3,6.9l-7.6,1L27.1,37.2z M30.2,32.2l2.3-4.8   l2.3,4.8l5.3,0.7l-3.9,3.7l0.9,5.3l-4.7-2.5l-4.7,2.5l0.9-5.3l-3.9-3.7L30.2,32.2z"/><polygon points="41.2,27.4 42.7,30.5 46.2,31 43.7,33.4 44.3,36.8 41.5,35.4 40.8,36.7 46.3,39.6 45.3,33.9 49.4,29.9 43.7,29.1    41.2,23.9 38.5,29.5 39.8,30.1  "/><polygon points="18.7,39.6 24.2,36.7 23.5,35.4 20.7,36.8 21.3,33.4 18.8,31 22.3,30.5 23.8,27.4 25.2,30.1 26.5,29.5 23.8,23.9    21.3,29.1 15.6,29.9 19.7,33.9  "/></g><text x="0" y="80" fill="#5433ff" font-size="5px" font-weight="bold" font-family="'Helvetica Neue', Helvetica, Arial-Unicode, Arial, Sans-serif">Created by Creative Stall</text><text x="0" y="85" fill="#5433ff" font-size="5px" font-weight="bold" font-family="'Helvetica Neue', Helvetica, Arial-Unicode, Arial, Sans-serif">from the Noun Project</text></svg>