<svg xmlns="http://www.w3.org/2000/svg" viewBox="0 0 512 640" x="0px" y="0px"><path d="M152,136H112V120h40ZM408,488h80V392H408ZM272,440a7.991,7.991,0,0,1-2.614-.439L165.993,403.808a15.981,15.981,0,0,0-20.157,10.065,15.937,15.937,0,0,0,10.056,20.186L269.024,472H392V440H272Zm40-32a16.019,16.019,0,0,0,16,16h64V392H328A16.019,16.019,0,0,0,312,408ZM184,184a7.992,7.992,0,0,1,4.438,1.344L200,193.052V120H168v73.052l11.562-7.708A7.992,7.992,0,0,1,184,184Zm32-48h40V120H216Zm0,72a8,8,0,0,1-12.438,6.656L184,201.615l-19.562,13.041A8,8,0,0,1,152,208V152H112V264H256V152H216ZM192,360c87.229,0,159.133-66.826,167.231-151.97L387,230.247a8,8,0,0,0,10-12.494l-40-32a8,8,0,0,0-10,0l-40,32a8,8,0,1,0,10,12.494l25.994-20.8C334.308,285.075,269.911,344,192,344c-83.813,0-152-68.187-152-152S108.187,40,192,40a8,8,0,0,0,0-16C99.364,24,24,99.364,24,192S99.364,360,192,360Z"/><text x="0" y="527" fill="#000000" font-size="5px" font-weight="bold" font-family="'Helvetica Neue', Helvetica, Arial-Unicode, Arial, Sans-serif">Created by iconixar</text><text x="0" y="532" fill="#000000" font-size="5px" font-weight="bold" font-family="'Helvetica Neue', Helvetica, Arial-Unicode, Arial, Sans-serif">from the Noun Project</text></svg>