<svg  width="48" height="auto" fill="#5433ff" xmlns="http://www.w3.org/2000/svg" viewBox="0 0 64 80" x="0px" y="0px"><title>Recruit icon</title><desc>Recruit icon for website, application, printing, document, poster design, etc.</desc><metadata><?xpacket begin="&#65279;" id="W5M0MpCehiHzreSzNTczkc9d"?><x:xmpmeta xmlns:x="adobe:ns:meta/" x:xmptk="Adobe XMP Core 6.0-c002 79.164488, 2020/07/10-22:06:53        "/><?xpacket end="w"?></metadata><g><path d="M7,22a1,1,0,0,0,1-1V12h5a1,1,0,0,0,0-2H8V8H20a1,1,0,0,0,0-2H8V4H50V26a1,1,0,0,0,2,0V3a1,1,0,0,0-1-1H7A1,1,0,0,0,6,3V21A1,1,0,0,0,7,22Z"/><path d="M61.121,54.05l-3.172-3.171a1,1,0,0,0-1.414,1.414l3.172,3.171a1,1,0,0,1,0,1.415l-2.828,2.828a1.022,1.022,0,0,1-1.414,0l-9.194-9.192a1,1,0,0,1,0-1.414l2.83-2.829a1,1,0,0,1,1.414,0l3.192,3.192a1,1,0,0,0,1.414-1.414L52,44.929V30a1,1,0,0,0-2,0V44a2.991,2.991,0,0,0-1.476.281l-5.861-5.86a17.979,17.979,0,0,0-.533-21.557,1,1,0,0,0-1.57,1.24A16.017,16.017,0,1,1,33.6,13.031l-.632,1.895A13.981,13.981,0,0,0,16.707,36.249a1,1,0,1,0,1.613-1.182A11.984,11.984,0,0,1,32.339,16.821l-.287.863a1,1,0,1,0,1.9.632l.2-.6A11.986,11.986,0,1,1,20.933,37.68a1,1,0,0,0-1.182,1.614A13.99,13.99,0,1,0,34.8,15.773l.644-1.93a15.918,15.918,0,0,1,2.456,1.6,1,1,0,1,0,1.241-1.569,17.925,17.925,0,0,0-3.06-1.941L36.721,10H39a1,1,0,0,0,0-2H36a1,1,0,0,0-.948.684l-.817,2.451A17.98,17.98,0,0,0,10,28a18.418,18.418,0,0,0,.118,2H8V25a1,1,0,0,0-2,0V61a1,1,0,0,0,1,1H51a1,1,0,0,0,1-1V59.071l2.05,2.05a3,3,0,0,0,4.243,0l2.828-2.828A3,3,0,0,0,61.121,54.05ZM46.979,45.565l-1.414,1.414-5.58-5.58c.248-.222.5-.432.743-.671s.452-.492.674-.74ZM10.461,32a17.763,17.763,0,0,0,2.567,6H12a1,1,0,0,0,0,2h2.612c.219.244.427.495.66.728A18.373,18.373,0,0,0,16.69,42H12a1,1,0,0,0,0,2h7.765A17.953,17.953,0,0,0,26,45.87V54H8V32ZM50,60H8V56H27a1,1,0,0,0,1-1V45.992a17.976,17.976,0,0,0,10.415-3.335l5.866,5.867a3,3,0,0,0,.576,3.405L50,57.071Z"/><path d="M21,30v5a1,1,0,0,0,1,1h5a1,1,0,0,0,0-2H23V30a2,2,0,0,1,2-2h6a2,2,0,0,1,2,2v4H31a1,1,0,0,0,0,2h3a1,1,0,0,0,1-1V30a4,4,0,0,0-3.114-3.893A4.95,4.95,0,0,0,33,23a5,5,0,0,0-10,0,4.95,4.95,0,0,0,1.114,3.107A4,4,0,0,0,21,30Zm7-10a3,3,0,1,1-3,3A3,3,0,0,1,28,20Z"/><path d="M12,48H22a1,1,0,0,0,0-2H12a1,1,0,0,0,0,2Z"/><path d="M22,50H12a1,1,0,0,0,0,2H22a1,1,0,0,0,0-2Z"/><path d="M43,6a1,1,0,0,0-1,1v4a1,1,0,0,0,1,1h4a1,1,0,0,0,1-1V7a1,1,0,0,0-1-1Zm3,4H44V8h2Z"/><path d="M39,46H35a1,1,0,0,0-1,1v2H31a1,1,0,0,0-1,1v5a1,1,0,0,0,1,1h8a1,1,0,0,0,1-1V47A1,1,0,0,0,39,46Zm-7,5h2v3H32Zm6,3H36V48h2Z"/></g></svg>