<svg xmlns="http://www.w3.org/2000/svg" xmlns:xlink="http://www.w3.org/1999/xlink" version="1.1" x="0px" y="0px" viewBox="0 0 24 30" style="enable-background:new 0 0 24 24;" xml:space="preserve"><style type="text/css">
	.st0{fill:none;}
</style><g><g><path d="M11.9883928,10.1733809c-0.4402771,0-0.9421482-0.1006165-1.2279758-0.3860884L9.8953857,10.651967    c0.4226885,0.4347229,0.9226379,0.6266994,1.5076094,0.694418V12h1.1940098v-0.6912842    c0.8633938-0.1816511,1.5076094-0.7486067,1.5076094-1.6607771c0-0.5097046-0.1157122-0.9191484-0.4090881-1.2046204    c-0.231781-0.231781-0.5871077-0.3861589-1.0814314-0.4559426L11.9496565,7.894877    c-0.1930447-0.0232134-0.3087568-0.0927124-0.3782558-0.1622109c-0.0848789-0.0849509-0.1081638-0.1855674-0.1081638-0.2550659    c0-0.2392578,0.1930437-0.5097046,0.6640825-0.5097046c0.2396135,0,0.6952715-0.0232849,1.0427656,0.3244934l0.8496494-0.8496499    c-0.3797503-0.3797507-0.8458042-0.5673828-1.4227295-0.628408V5h-1.1940098v0.8973594    c-0.7866316,0.2379045-1.2450666,0.8488665-1.2450666,1.6268106c0,0.4710388,0.1236162,0.8417463,0.3786116,1.1043596    c0.2471619,0.2549953,0.6175842,0.4172773,1.1043596,0.4867764l0.6640825,0.0924273    c0.1776638,0.0232849,0.2937317,0.0773315,0.3632307,0.1468306c0.0770464,0.0849504,0.1081648,0.1931152,0.1081648,0.324564    C12.7763777,9.995717,12.5213823,10.1733809,11.9883928,10.1733809z"/></g><g><g><path d="M17,6.333313V3H7v3.333313L3,9v11h4h10h4V9L17,6.333313z M16,4v8.333313L12,15l-4-2.666687V4H16z M4,9.666687V9.5351562     l3-2v4.1315308L4,9.666687z M20,9.666687l-3,2V7.5351562l3,2V9.666687z"/></g></g></g><text x="0" y="39" fill="#000000" font-size="5px" font-weight="bold" font-family="'Helvetica Neue', Helvetica, Arial-Unicode, Arial, Sans-serif">Created by Sophia Bai</text><text x="0" y="44" fill="#000000" font-size="5px" font-weight="bold" font-family="'Helvetica Neue', Helvetica, Arial-Unicode, Arial, Sans-serif">from the Noun Project</text></svg>