<svg width="48px" height="auto" fill="#5433ff" xmlns="http://www.w3.org/2000/svg" xmlns:xlink="http://www.w3.org/1999/xlink" version="1.1" x="0px" y="0px" viewBox="0 0 48 60" style="enable-background:new 0 0 48 48;" xml:space="preserve"><path d="M36.5,19.5c0.28,0,0.5-0.22,0.5-0.5v-1c0-0.28-0.22-0.5-0.5-0.5S36,17.72,36,18v1C36,19.28,36.22,19.5,36.5,19.5z"/><path d="M39.5,15.5H35V14c0-1.38-1.12-2.5-2.5-2.5S30,12.62,30,14v2c0,0.28,0.22,0.5,0.5,0.5S31,16.28,31,16v-2  c0-0.83,0.67-1.5,1.5-1.5S34,13.17,34,14v1.5h-0.5c-0.28,0-0.5,0.22-0.5,0.5v5c0,0.28,0.22,0.5,0.5,0.5h6c0.28,0,0.5-0.22,0.5-0.5  v-5C40,15.72,39.78,15.5,39.5,15.5z M39,20.5h-5v-4h5V20.5z"/><path d="M29.5,44.5c0.28,0,0.5-0.22,0.5-0.5V30c0-3.85-2.1-7.38-5.47-9.21c0,0,0,0,0,0c0,0,0,0,0,0c0,0,0,0,0,0  c-0.54-0.3-1.11-0.53-1.69-0.72C24.77,18.32,26,15.8,26,13c0-5.24-4.26-9.5-9.5-9.5S7,7.76,7,13c0,2.8,1.23,5.32,3.17,7.06  c-0.58,0.19-1.15,0.42-1.69,0.72c0,0,0,0-0.01,0c0,0,0,0,0,0c0,0,0,0,0,0C5.1,22.63,3,26.15,3,30v14c0,0.28,0.22,0.5,0.5,0.5H29.5z   M8,13c0-4.69,3.81-8.5,8.5-8.5S25,8.31,25,13s-3.81,8.5-8.5,8.5S8,17.69,8,13z M11.11,20.82c1.53,1.06,3.39,1.68,5.39,1.68  s3.85-0.62,5.39-1.68c0.59,0.15,1.15,0.36,1.69,0.63l-4.89,8.67l-0.63-5.61h0.44c0.28,0,0.5-0.22,0.5-0.5s-0.22-0.5-0.5-0.5h-4  c-0.28,0-0.5,0.22-0.5,0.5s0.22,0.5,0.5,0.5h0.44l-0.63,5.61l-4.89-8.67C9.96,21.18,10.53,20.97,11.11,20.82z M17.84,31.6  l-1.34,2.38l-1.34-2.38l0.79-7.1h1.1L17.84,31.6z M4,30c0-3.31,1.74-6.35,4.54-8.08l7.52,13.32c0.09,0.16,0.26,0.25,0.44,0.25  s0.35-0.1,0.44-0.25l7.52-13.32C27.26,23.64,29,26.68,29,30v13.5H4V30z"/><path d="M16.5,37.5c-0.83,0-1.5,0.67-1.5,1.5s0.67,1.5,1.5,1.5S18,39.83,18,39S17.33,37.5,16.5,37.5z M16.5,39.5  c-0.28,0-0.5-0.22-0.5-0.5s0.22-0.5,0.5-0.5S17,38.72,17,39S16.78,39.5,16.5,39.5z"/><path d="M35.5,7.5c-5.24,0-9.5,4.26-9.5,9.5s4.26,9.5,9.5,9.5S45,22.24,45,17S40.74,7.5,35.5,7.5z M35.5,25.5  c-4.69,0-8.5-3.81-8.5-8.5s3.81-8.5,8.5-8.5S44,12.31,44,17S40.19,25.5,35.5,25.5z"/><text x="0" y="63" fill="#5433ff" font-size="5px" font-weight="bold" font-family="'Helvetica Neue', Helvetica, Arial-Unicode, Arial, Sans-serif">Created by barurezeki</text><text x="0" y="68" fill="#5433ff" font-size="5px" font-weight="bold" font-family="'Helvetica Neue', Helvetica, Arial-Unicode, Arial, Sans-serif">from the Noun Project</text></svg>