<svg xmlns="http://www.w3.org/2000/svg" viewBox="0 0 68 85" x="0px" y="0px"><path fill="#000000" fill-rule="evenodd" d="M178,296 C176.895431,296 176,296.895431 176,298 L176,328 C176,329.104569 176.895431,330 178,330 L242,330 C243.104569,330 244,329.104569 244,328 L244,298 C244,296.895431 243.104569,296 242,296 L178,296 Z M240,300 L240,326 L180,326 L180,300 L240,300 Z M178,337 C176.895431,337 176,337.895431 176,339 L176,347 C176,348.104569 176.895431,349 178,349 L228,349 C229.104569,349 230,348.104569 230,347 L230,339 C230,337.895431 229.104569,337 228,337 L178,337 Z M226,341 L226,345 L180,345 L180,341 L226,341 Z M178,357 L242,357 C243.104569,357 244,356.104569 244,355 C244,353.895431 243.104569,353 242,353 L178,353 C176.895431,353 176,353.895431 176,355 C176,356.104569 176.895431,357 178,357 Z M178,364 L202,364 C203.104569,364 204,363.104569 204,362 C204,360.895431 203.104569,360 202,360 L178,360 C176.895431,360 176,360.895431 176,362 C176,363.104569 176.895431,364 178,364 Z" transform="translate(-176 -296)"/><text x="0" y="83" fill="#000000" font-size="5px" font-weight="bold" font-family="'Helvetica Neue', Helvetica, Arial-Unicode, Arial, Sans-serif">Created by Andrejs Kirma</text><text x="0" y="88" fill="#000000" font-size="5px" font-weight="bold" font-family="'Helvetica Neue', Helvetica, Arial-Unicode, Arial, Sans-serif">from the Noun Project</text></svg>