<svg xmlns="http://www.w3.org/2000/svg" xmlns:xlink="http://www.w3.org/1999/xlink" version="1.1" x="0px" y="0px" viewBox="0 0 44 62.5" style="enable-background:new 0 0 44 50;" xml:space="preserve"><path d="M32,1c-5.523,0-10,4.477-10,10c0,5.523,4.477,10,10,10s10-4.477,10-10C42,5.477,37.523,1,32,1z M35.71,10.341l-1.635,1.593  l-0.058,0.177l0.386,2.25c0.028,0.164-0.143,0.288-0.29,0.211l-2.02-1.062h-0.186l-2.02,1.062c-0.147,0.077-0.318-0.047-0.29-0.211  l0.386-2.25l-0.057-0.177l-1.635-1.593c-0.119-0.116-0.053-0.317,0.111-0.341l2.259-0.328l0.151-0.109l1.01-2.047  c0.073-0.149,0.285-0.149,0.359,0l1.01,2.047l0.151,0.109L35.599,10C35.763,10.024,35.829,10.226,35.71,10.341z"/><rect x="10" y="32.5" width="20" height="1"/><rect x="10" y="28.5" width="20" height="1"/><rect x="10" y="36.5" width="20" height="1"/><rect x="10" y="24.5" width="20" height="1"/><path d="M10,16.5v1h10.759c-0.188-0.325-0.361-0.658-0.521-1H10z"/><path d="M10,20.5v1h14.367c-0.424-0.309-0.828-0.643-1.212-1H10z"/><path d="M36,46c0,0.551-0.449,1-1,1H5c-0.551,0-1-0.449-1-1V8c0-0.551,0.449-1,1-1h14.636c0.225-0.694,0.509-1.362,0.843-2H5  C3.343,5,2,6.343,2,8v38c0,1.657,1.343,3,3,3h30c1.657,0,3-1.343,3-3V22.521c-0.638,0.334-1.306,0.618-2,0.843V46z"/><text x="0" y="65" fill="#000000" font-size="5px" font-weight="bold" font-family="'Helvetica Neue', Helvetica, Arial-Unicode, Arial, Sans-serif">Created by Lil Squid</text><text x="0" y="70" fill="#000000" font-size="5px" font-weight="bold" font-family="'Helvetica Neue', Helvetica, Arial-Unicode, Arial, Sans-serif">from the Noun Project</text></svg>